<?xml version="1.0" encoding="utf-8"?>
<!-- Generator: Adobe Illustrator 24.2.3, SVG Export Plug-In . SVG Version: 6.00 Build 0)  -->
<svg version="1.1" id="Calque_1" xmlns="http://www.w3.org/2000/svg" xmlns:xlink="http://www.w3.org/1999/xlink" x="0px" y="0px"
	 viewBox="0 0 200 200" style="enable-background:new 0 0 200 200;" xml:space="preserve">
<style type="text/css">
	.st0{opacity:0.3;}
	.st1{fill:#585763;}
	.st2{display:none;}
	.st3{display:inline;fill:#F39208;}
	.st4{display:inline;}
	.st5{fill:#F39208;}
	.st6{display:inline;fill:none;stroke:#F39208;stroke-width:3;stroke-miterlimit:10;}
	.st7{fill-rule:evenodd;clip-rule:evenodd;fill:#221E1B;}
</style>
<g id="XMLID_67_">
	<g id="XMLID_2293_" class="st0">
		<path id="XMLID_2299_" class="st1" d="M146.6,127.5H53.4c-7.3,0-13.3-6-13.3-13.3V61c0-7.3,6-13.3,13.3-13.3h93.1
			c7.3,0,13.3,6,13.3,13.3v53.3C159.8,121.6,153.9,127.5,146.6,127.5z M53.4,53c-4.4,0-8,3.6-8,8v53.3c0,4.4,3.6,8,8,8h93.1
			c4.4,0,8-3.6,8-8V61c0-4.4-3.6-8-8-8H53.4z"/>
	</g>
	<g id="XMLID_2284_" class="st0">
		<path id="XMLID_2290_" class="st1" d="M161.2,152.3H38.8c-4.4,0-8-3.6-8-8v-4.2c0-4.4,3.6-8,8-8h122.3c4.4,0,8,3.6,8,8v4.2
			C169.1,148.8,165.6,152.3,161.2,152.3z M38.8,137.5c-1.5,0-2.7,1.2-2.7,2.7v4.2c0,1.5,1.2,2.7,2.7,2.7h122.3
			c1.5,0,2.7-1.2,2.7-2.7v-4.2c0-1.5-1.2-2.7-2.7-2.7H38.8z"/>
	</g>
	<g id="XMLID_2280_" class="st2">
		<path id="XMLID_2281_" class="st3" d="M121.4,109.2H78.6c-6.4,0-11.6-5.2-11.6-11.6c0-4.8,2.9-9,7.2-10.8
			c0.3-5.8,4.9-10.5,10.7-10.9C87.4,70,93.4,66,100,66s12.6,4,15.2,9.9c5.8,0.5,10.4,5.1,10.7,10.9c4.2,1.8,7.1,6,7.1,10.7
			C133.1,104,127.9,109.2,121.4,109.2z M85.7,81.2c-3.5,0-6.3,2.8-6.3,6.3c0,0.3,0,0.5,0.1,0.9c0.2,1.4-0.7,2.7-2.1,3
			c-3,0.6-5.1,3.2-5.1,6.2c0,3.5,2.8,6.3,6.3,6.3h42.9c3.5,0,6.3-2.8,6.3-6.3c0-3-2.1-5.6-5.1-6.2c-1.4-0.3-2.3-1.6-2.1-3
			c0-0.3,0.1-0.6,0.1-0.9c0-3.5-2.8-6.3-6.3-6.3c-0.2,0-0.4,0-0.7,0c-1.3,0.1-2.5-0.7-2.8-1.9c-1.4-4.7-5.9-8.1-10.8-8.1
			c-5,0-9.4,3.3-10.8,8.1c-0.4,1.2-1.5,2-2.8,1.9C86.2,81.2,86,81.2,85.7,81.2z"/>
	</g>
	<g class="st2">
		<circle class="st3" cx="100" cy="100.8" r="3"/>
		<g class="st4">
			<path class="st5" d="M112.5,81.8l3.4-3.8c-4-4.2-9.7-6.8-15.9-6.8c-12.2,0-22,9.9-22,22c0,0.1,0,0.3,0,0.4h0.5
				c0.6-10.2,9.1-18.4,19.4-18.4C103.8,75.3,109,77.8,112.5,81.8z"/>
		</g>
		<line class="st6" x1="99.5" y1="101.4" x2="118.5" y2="80.2"/>
		<path class="st3" d="M116.2,87.8c0.6,1.5,1,3.2,1.2,4.9l4.6,1.7c0-0.4,0.1-0.8,0.1-1.2c0-3.4-0.8-6.6-2.2-9.5L116.2,87.8z"/>
	</g>
	<g class="st2">
		<g class="st4">
			<g>
				<path class="st5" d="M124.6,63.7c-0.1-0.4-0.4-0.8-0.8-0.8c-3.9-0.5-7.8-0.1-11.5,1.2c-3.7,1.3-7.1,3.4-9.8,6.1l-6.3,6.3
					l-9.1,1.2c-0.2,0-0.4,0.1-0.5,0.3l-8.7,8.7c-0.2,0.2-0.3,0.6-0.2,0.9c0.1,0.3,0.4,0.6,0.7,0.6l6.6,1.2l1.3,1.3l-2.8,1.5
					C83.2,92.5,83,92.7,83,93s0.1,0.6,0.3,0.8l10.5,10.5c0.2,0.2,0.4,0.3,0.7,0.3h0.1c0.3,0,0.6-0.2,0.7-0.5l1.5-2.8l1.3,1.3
					l1.2,6.6c0.1,0.3,0.3,0.6,0.6,0.7c0.1,0,0.2,0,0.3,0c0.2,0,0.5-0.1,0.7-0.3l8.7-8.7c0.1-0.1,0.2-0.3,0.3-0.5l1.2-9.1l6.3-6.3
					c2.8-2.8,4.9-6.1,6.1-9.8C124.7,71.6,125.1,67.6,124.6,63.7z M85.1,87.6l-4.6-0.9l7.2-7.2l6.3-0.8L85.1,87.6z M94.2,102.1
					l-8.7-8.7l2.1-1.2l7.7,7.7L94.2,102.1z M108,99.9l-7.2,7.2l-0.9-4.6l8.9-8.9L108,99.9z M116,83.7l-17.1,17.1L86.7,88.6
					l17.1-17.1c2.5-2.5,5.5-4.4,8.8-5.6c0.4,2.2,1.5,4.2,3.1,5.8c1.6,1.6,3.6,2.7,5.8,3.1C120.4,78.2,118.4,81.3,116,83.7z
					 M122.1,73.1c-1.9-0.3-3.7-1.2-5.1-2.6s-2.3-3.2-2.6-5.1c2.7-0.7,5.6-1,8.4-0.7C123.1,67.5,122.9,70.4,122.1,73.1z"/>
				<path class="st5" d="M102.9,76.6c-2.2,2.2-2.2,5.9,0,8.1c1.1,1.1,2.6,1.7,4,1.7c1.5,0,2.9-0.6,4-1.7l0,0c2.2-2.2,2.2-5.9,0-8.1
					C108.7,74.4,105.1,74.4,102.9,76.6z M109.6,83.3c-1.5,1.5-3.9,1.5-5.4,0s-1.5-3.9,0-5.4c0.7-0.7,1.7-1.1,2.7-1.1s2,0.4,2.7,1.1
					C111.1,79.4,111.1,81.8,109.6,83.3z"/>
				<path class="st5" d="M87.4,100.3c-0.4-0.4-1-0.4-1.3,0l-8.1,8.1c-0.4,0.4-0.4,1,0,1.3c0.2,0.2,0.4,0.3,0.7,0.3
					c0.2,0,0.5-0.1,0.7-0.3l8.1-8.1C87.8,101.3,87.8,100.7,87.4,100.3z"/>
				<path class="st5" d="M88.7,102.9l-3.6,3.6c-0.4,0.4-0.4,1,0,1.3c0.2,0.2,0.4,0.3,0.7,0.3s0.5-0.1,0.7-0.3l3.6-3.6
					c0.4-0.4,0.4-1,0-1.3C89.6,102.5,89,102.5,88.7,102.9z"/>
				<path class="st5" d="M83.8,108.2c-0.4,0-0.8,0.3-0.9,0.6c-0.1,0.4,0,0.8,0.3,1.1c0.3,0.3,0.8,0.3,1.1,0c0.4-0.2,0.5-0.7,0.3-1.1
					C84.5,108.4,84.1,108.2,83.8,108.2z"/>
				<path class="st5" d="M84.6,108.8C84.7,108.8,84.6,108.7,84.6,108.8L84.6,108.8z"/>
				<path class="st5" d="M81.1,110.4l-0.5,0.5c-0.4,0.4-0.4,1,0,1.3c0.2,0.2,0.4,0.3,0.7,0.3c0.2,0,0.5-0.1,0.7-0.3l0.5-0.5
					c0.4-0.4,0.4-1,0-1.3S81.5,110.1,81.1,110.4z"/>
				<path class="st5" d="M80.4,102.2c-0.4-0.4-1-0.4-1.3,0l-3.6,3.6c-0.4,0.4-0.4,1,0,1.3c0.2,0.2,0.4,0.3,0.7,0.3s0.5-0.1,0.7-0.3
					l3.6-3.6C80.8,103.1,80.8,102.5,80.4,102.2z"/>
				<path class="st5" d="M81.9,101.8c0.4-0.1,0.7-0.4,0.7-0.8s-0.2-0.8-0.5-0.9c-0.4-0.2-0.8-0.1-1.1,0.2c-0.3,0.3-0.3,0.8-0.1,1.2
					l0,0l0,0C81.1,101.7,81.5,101.9,81.9,101.8z"/>
				<path class="st5" d="M84.4,99.5l0.5-0.5c0.4-0.4,0.4-1,0-1.3c-0.4-0.4-1-0.4-1.3,0L83,98.2c-0.4,0.4-0.4,1,0,1.3
					c0.2,0.2,0.4,0.3,0.7,0.3S84.2,99.7,84.4,99.5z"/>
			</g>
		</g>
	</g>
	<path class="st7" d="M100,68.7c-11.2,0-20.3,9.1-20.3,20.3c0,9,5.8,16.5,13.9,19.2c1,0.2,1.4-0.4,1.4-1c0-0.5,0-1.8,0-3.4
		c-5.6,1.2-6.8-2.7-6.8-2.7c-0.9-2.3-2.2-3-2.2-3C84,96.8,86,96.8,86,96.8c2,0.1,3.1,2.1,3.1,2.1c1.8,3.1,4.7,2.2,5.9,1.7
		c0.2-1.3,0.7-2.2,1.3-2.7c-4.5-0.5-9.2-2.2-9.2-10c0-2.2,0.8-4,2.1-5.4c-0.2-0.5-0.9-2.6,0.2-5.4c0,0,1.7-0.5,5.6,2.1
		c1.6-0.4,3.3-0.7,5.1-0.7c1.7,0,3.5,0.2,5.1,0.7c3.9-2.6,5.6-2.1,5.6-2.1c1.1,2.8,0.4,4.8,0.2,5.4c1.3,1.4,2.1,3.2,2.1,5.4
		c0,7.8-4.7,9.5-9.3,10c0.7,0.6,1.4,1.9,1.4,3.8c0,2.7,0,4.9,0,5.6c0,0.5,0.4,1.2,1.4,1c8-2.7,13.8-10.3,13.8-19.2
		C120.3,77.7,111.2,68.7,100,68.7z"/>
</g>
</svg>
