<?xml version="1.0" encoding="utf-8"?>
<!-- Generator: Adobe Illustrator 24.2.3, SVG Export Plug-In . SVG Version: 6.00 Build 0)  -->
<svg version="1.1" id="Calque_1" xmlns="http://www.w3.org/2000/svg" xmlns:xlink="http://www.w3.org/1999/xlink" x="0px" y="0px"
	 viewBox="0 0 200 200" style="enable-background:new 0 0 200 200;" xml:space="preserve">
<style type="text/css">
	.st0{opacity:0.3;}
	.st1{fill:#585763;}
	.st2{display:none;}
	.st3{display:inline;fill:#F39208;}
	.st4{fill:#F39208;}
	.st5{fill:none;stroke:#F39208;stroke-width:3;stroke-miterlimit:10;}
</style>
<g id="XMLID_67_">
	<g id="XMLID_2293_" class="st0">
		<path id="XMLID_2299_" class="st1" d="M146.6,127.5H53.4c-7.3,0-13.3-6-13.3-13.3V61c0-7.3,6-13.3,13.3-13.3h93.1
			c7.3,0,13.3,6,13.3,13.3v53.3C159.8,121.6,153.9,127.5,146.6,127.5z M53.4,53c-4.4,0-8,3.6-8,8v53.3c0,4.4,3.6,8,8,8h93.1
			c4.4,0,8-3.6,8-8V61c0-4.4-3.6-8-8-8H53.4z"/>
	</g>
	<g id="XMLID_2284_" class="st0">
		<path id="XMLID_2290_" class="st1" d="M161.2,152.3H38.8c-4.4,0-8-3.6-8-8v-4.2c0-4.4,3.6-8,8-8h122.3c4.4,0,8,3.6,8,8v4.2
			C169.1,148.8,165.6,152.3,161.2,152.3z M38.8,137.5c-1.5,0-2.7,1.2-2.7,2.7v4.2c0,1.5,1.2,2.7,2.7,2.7h122.3
			c1.5,0,2.7-1.2,2.7-2.7v-4.2c0-1.5-1.2-2.7-2.7-2.7H38.8z"/>
	</g>
	<g id="XMLID_2280_" class="st2">
		<path id="XMLID_2281_" class="st3" d="M121.4,109.2H78.6c-6.4,0-11.6-5.2-11.6-11.6c0-4.8,2.9-9,7.2-10.8
			c0.3-5.8,4.9-10.5,10.7-10.9C87.4,70,93.4,66,100,66s12.6,4,15.2,9.9c5.8,0.5,10.4,5.1,10.7,10.9c4.2,1.8,7.1,6,7.1,10.7
			C133.1,104,127.9,109.2,121.4,109.2z M85.7,81.2c-3.5,0-6.3,2.8-6.3,6.3c0,0.3,0,0.5,0.1,0.9c0.2,1.4-0.7,2.7-2.1,3
			c-3,0.6-5.1,3.2-5.1,6.2c0,3.5,2.8,6.3,6.3,6.3h42.9c3.5,0,6.3-2.8,6.3-6.3c0-3-2.1-5.6-5.1-6.2c-1.4-0.3-2.3-1.6-2.1-3
			c0-0.3,0.1-0.6,0.1-0.9c0-3.5-2.8-6.3-6.3-6.3c-0.2,0-0.4,0-0.7,0c-1.3,0.1-2.5-0.7-2.8-1.9c-1.4-4.7-5.9-8.1-10.8-8.1
			c-5,0-9.4,3.3-10.8,8.1c-0.4,1.2-1.5,2-2.8,1.9C86.2,81.2,86,81.2,85.7,81.2z"/>
	</g>
	<g>
		<circle class="st4" cx="100" cy="100.8" r="3"/>
		<g>
			<path class="st4" d="M112.5,81.8l3.4-3.8c-4-4.2-9.7-6.8-15.9-6.8c-12.2,0-22,9.9-22,22c0,0.1,0,0.3,0,0.4h0.5
				c0.6-10.2,9.1-18.4,19.4-18.4C103.8,75.3,109,77.8,112.5,81.8z"/>
		</g>
		<line class="st5" x1="99.5" y1="101.4" x2="118.5" y2="80.2"/>
		<path class="st4" d="M116.2,87.8c0.6,1.5,1,3.2,1.2,4.9l4.6,1.7c0-0.4,0.1-0.8,0.1-1.2c0-3.4-0.8-6.6-2.2-9.5L116.2,87.8z"/>
	</g>
</g>
</svg>
