<?xml version="1.0" encoding="utf-8"?>
<!-- Generator: Adobe Illustrator 24.2.0, SVG Export Plug-In . SVG Version: 6.00 Build 0)  -->
<svg version="1.1" xmlns="http://www.w3.org/2000/svg" xmlns:xlink="http://www.w3.org/1999/xlink" x="0px" y="0px"
	 viewBox="0 0 1860.8 924" style="enable-background:new 0 0 1860.8 924;" xml:space="preserve">
<style type="text/css">
	.st0{opacity:0.5;fill:#FFE0E0;enable-background:new    ;}
	.st1{fill:#FFFFFF;}
	.st2{fill:#F0C9CF;}
	.st3{fill:#1F2251;}
	.st4{fill:#D683A7;}
	.st5{fill:#99A3CA;}
	.st6{fill:#7988B8;}
	.st7{fill:#647BF4;}
	.st8{opacity:0.25;}
	.st9{fill:none;stroke:#1F2251;stroke-width:0.525;stroke-linecap:round;stroke-linejoin:round;}
	.st10{fill:#161937;}
	.st11{fill:none;stroke:#C85E8B;stroke-width:0.525;stroke-linecap:round;stroke-miterlimit:9;}
	.st12{fill:none;stroke:#1F2251;stroke-width:0.788;stroke-linecap:round;stroke-linejoin:round;}
	.st13{fill:#EAB7C0;}
	.st14{fill:#2A3551;}
	.st15{fill:#364380;}
	.st16{fill:#445EC7;}
	.st17{fill:#4257B2;}
	.st18{fill:#EBAF65;}
	.st19{fill:#292F69;}
	.st20{fill:none;stroke:#647BF4;stroke-width:0.788;stroke-miterlimit:10;}
	.st21{fill:#E6E9FC;}
	.st22{fill:none;stroke:#97A2D4;stroke-width:2.101;stroke-linecap:round;stroke-linejoin:round;}
	.st23{fill:none;stroke:#647BF4;stroke-linecap:round;stroke-linejoin:round;}
	.st24{opacity:0.25;fill:none;stroke:#647BF4;stroke-linecap:round;stroke-linejoin:round;enable-background:new    ;}
	.st25{fill:none;stroke:#EBAF65;stroke-linecap:round;stroke-linejoin:round;}
</style>
<g id="Ebene_1">
	<path class="st0" d="M397.6,69c-149.8,80-173,231.3-274.5,342.9c-35.3,38.8-81,73.6-104.8,116.7C-36.3,627.2,38.9,739,139.6,817.3
		c48,37.4,104.1,71.6,172,87.3c52.2,12.1,108.1,12.6,163.1,12.9l962.3,6.3c107.4,0.7,226.8-1.8,304.1-54.7
		c53.2-36.4,74.9-89.5,93.2-140.3c22.6-62.3,43-130,7.9-189.4c-40.1-67.9-141.4-106.4-204.4-165.1c-102.2-95-99.8-238.6-229.9-314.4
		c-60.8-35.4-140.9-49.3-219-56.2C1041.5-9.2,902,15.5,757.4,12C633.8,9.1,500.1,14.2,397.6,69z"/>
</g>
<g id="Ebene_2">
	<g>
		<path class="st1" d="M421.9,823.2c0,0,0-21.7-10.2-52.9c-10.2-31.2-62.8-37.5-57.3-82.3c29.4,10.6,52.6,54.3,57.7,67.6
			c-17.3-67.2-5.1-114.7-5.1-114.7s23.6,50.3,14.9,115.1c31-77.7,55.5-88.4,55.5-88.4s-6.4,47.1-23.3,71.9
			c-16.9,24.7-29.8,24.3-29.8,24.3s0.4,40.7,7.9,59.4H421.9z"/>
		<path class="st1" d="M1099.3,823.2c0,0,0-21.7-10.2-52.9c-10.2-31.2-62.8-37.5-57.3-82.3c29.5,10.6,52.6,54.3,57.7,67.6
			c-17.3-67.2-5.1-114.7-5.1-114.7s23.6,50.3,14.9,115.1c31-77.7,55.5-88.4,55.5-88.4s-6.4,47.1-23.3,71.9
			c-16.9,24.7-29.8,24.3-29.8,24.3s0.4,40.7,7.9,59.4L1099.3,823.2z"/>
		<path class="st2" d="M579.7,777.5l3.2,24.3l-7.1,12.2l-17.1-6.7l-5.3-23.8"/>
		<path class="st3" d="M619.4,818.9l-37.3-21.6l-7.1,10h-16.3l-1.8,15.1h61.4c0.4,0,0.8-0.1,1.2-0.4c0.3-0.3,0.6-0.6,0.7-1
			c0.1-0.4,0.1-0.8-0.1-1.2C620,819.4,619.7,819.1,619.4,818.9z"/>
		<path class="st2" d="M447.2,777.5l-4.7,24.3l7.1,12.2l17.1-6.7l6.9-23.8"/>
		<path class="st2" d="M598.3,540.1l-27.9,36.7c-1,1.3-1.5,2.8-1.7,4.4l-2.4,32.7l-10-68.7l14.1-23.7l-1.4-4.7l-5.3-17.7l27.5-10.4
			l1.7,4.9l8.7,25.9c1.2,3.4,1.5,7.1,0.9,10.7C602,533.9,600.5,537.2,598.3,540.1z"/>
		<path class="st4" d="M592.9,493.7l-23.9,23.2l-5.3-17.7l27.5-10.4L592.9,493.7z"/>
		<path class="st5" d="M584.8,783.8l-33.8,5.5l-26.5-113.9l-6.6-28.3l-0.2-0.7l-43,145.8l-33.8-9.3l31.5-202.6l2.4-15.3l85.7-1.3
			l0.9,8.4L584.8,783.8z"/>
		<path class="st6" d="M561.4,572l-89,8.3l1.3-8.3l1.1-7.1l85.7-1.3l0.8,6.9L561.4,572z"/>
		<path class="st3" d="M561.2,570.6c-18.6,2.7-74.4,1.7-87.6,1.4l1.1-7.1l85.7-1.3L561.2,570.6z"/>
		<path class="st7" d="M595.6,487.1l-19.8,11.8l-2.6,1.5l-6,3.6v0.2l-0.1,2.6l-0.9,20.8l-0.1,2.6l-0.9,20.8l-0.1,2.6l-0.3,6.5
			c0,0,3.5,3.9,2.6,7.3c-0.2,0.8-6.1,1.4-14.9,1.9c-0.8,0-1.7,0.1-2.6,0.1c-6.1,0.2-13.3,0.4-20.8,0.5c-0.8,0-1.7,0-2.6,0
			c-6.9,0-14.1,0-20.8-0.1c-0.9,0-1.7,0-2.6-0.1c-7.9-0.2-15.2-0.5-20.8-0.9c-0.9-0.1-1.8-0.1-2.6-0.2c-5.7-0.5-9.1-1.2-9-2.2
			c0.3-2.9,1.5-5.6,3.3-7.9l0-5l0-2.6l0.1-20.8l0-2.6l0.1-20.8v-1.3l-2.1-1.2l-13.2-7.7l-2.6-1.5l-16.5-9.6l0.9-2l1.2-2.6l9.4-20.8
			l1.2-2.5l3.9-8.7l0.8-1.8c0.5-1.2,1.1-2.4,1.7-3.5c1.3-2.4,2.8-4.7,4.5-6.8c0.7-0.9,1.4-1.7,2.2-2.6c4-4.4,8.8-8,14.1-10.7
			c0.8-0.4,1.7-0.8,2.6-1.2c3.7-1.6,7.6-2.7,11.6-3.3l6.1-1l3.1-0.5l2.6-0.4l0.1,0l20.7,1.7l2.6,0.2l6.3,0.5l5.3,0.7
			c0.3,0,0.7,0.1,1,0.2c2.8,0.4,5.6,1.1,8.3,2.1c0.9,0.3,1.7,0.6,2.6,1c6,2.4,11.4,6.1,15.9,10.6c0.8,0.8,1.6,1.7,2.4,2.6
			c0.9,1,1.7,2.1,2.5,3.2c0.9,1.3,1.8,2.6,2.6,3.9c0.9,1.5,1.7,3,2.4,4.6l4.1,9.1l1.2,2.5l9.4,20.8l1.2,2.6L595.6,487.1z"/>
		<g class="st8">
			<path class="st1" d="M592.8,480.8h-17V460h7.6l-1.2-2.5h-6.5v-13.7c-0.8-1.4-1.6-2.7-2.6-3.9v17.6h-20.8v-20.8h18.3
				c-0.8-0.9-1.6-1.7-2.4-2.6h-15.9v-10.6c-0.8-0.4-1.7-0.7-2.6-1v11.6h-20.8V419l-2.6-0.2V434h-20.8v-17l-2.6,0.4v16.6h-20.8v-11.8
				c-0.9,0.4-1.7,0.8-2.6,1.2v10.7h-14.1c-0.8,0.8-1.5,1.7-2.2,2.6h16.3v20.8H459v-14c-0.6,1.1-1.2,2.3-1.7,3.5l-0.8,1.8v8.7h-3.9
				l-1.2,2.5h5.1v20.8H442l-1.2,2.6h15.6V495l2.6,1.5v-13.1h20.8v20.8h-7.6l2.1,1.2v1.3h5.5v20.8h-5.6l0,2.6h5.6v20.8h-5.7l0,2.6
				h5.7v15c0.8,0.1,1.7,0.2,2.6,0.2v-15.2h20.8v16.1c0.8,0,1.7,0,2.6,0.1v-16.2h20.8v16.3c0.9,0,1.7,0,2.6,0v-16.3h20.8v15.8
				c0.9,0,1.7-0.1,2.6-0.1v-15.7h12.7l0.1-2.6h-12.8v-20.8h13.7l0.1-2.6h-13.8v-20.8h14.7l0.1-2.6h-14.8v-20.8h20.8v17.1l2.6-1.5
				v-15.6h18.2L592.8,480.8z M479.8,480.8H459V460h20.8V480.8z M503.1,550.9h-20.8v-20.8h20.8V550.9z M503.1,527.5h-20.8v-20.8h20.8
				V527.5z M503.1,504.2h-20.8v-20.8h20.8V504.2z M503.1,480.8h-20.8V460h20.8V480.8z M503.1,457.4h-20.8v-20.8h20.8V457.4z
				 M526.5,550.9h-20.8v-20.8h20.8V550.9z M526.5,527.5h-20.8v-20.8h20.8V527.5z M526.5,504.2h-20.8v-20.8h20.8V504.2z M526.5,480.8
				h-20.8V460h20.8V480.8z M526.5,457.4h-20.8v-20.8h20.8V457.4z M549.9,550.9h-20.8v-20.8h20.8L549.9,550.9z M549.9,527.5h-20.8
				v-20.8h20.8L549.9,527.5z M549.9,504.2h-20.8v-20.8h20.8L549.9,504.2z M549.9,480.8h-20.8V460h20.8L549.9,480.8z M549.9,457.4
				h-20.8v-20.8h20.8L549.9,457.4z M573.2,480.8h-20.8V460h20.8L573.2,480.8z"/>
		</g>
		<path class="st1" d="M541.6,420.4c-2,8.4-6.7,16.6-17.5,16.5c-17.5-0.1-22.7-13.5-24.1-18.9l5.7-0.9l29.5,2.5l5.3,0.7
			C540.9,420.3,541.3,420.3,541.6,420.4z"/>
		<path class="st9" d="M563.7,499.1l-2.2-33.9"/>
		<path class="st3" d="M549.1,363.3c0,0,3.7,4,0.8,10.9c-2.7,6.1-4.3,12.7-4.6,19.4c-0.2,5.4-23.8,8.6-31.9,9.5
			c-1.7,0.2-2.7,0.3-2.7,0.3l-6.4-12.6c-0.8-2.2-2.9-6.4-4.7-11.3c-2.9-7.9-5.2-17.5-0.6-23.2c7.5-9.2,15.8-5.1,28.5-11.4
			c12.7-6.3,19.1-12.1,26.5-3.5C561.4,350,549.1,363.3,549.1,363.3z"/>
		<path class="st10" d="M515.6,400.4l-2.2,2.7c-1.7,0.2-2.7,0.3-2.7,0.3l-6.4-12.6c-0.8-2.2-2.9-6.4-4.7-11.3
			c6.3-2.6,10.7-9.2,10.7-9.2L515.6,400.4z"/>
		<path class="st2" d="M535.3,419.5c0,0,0.6,12.5-12.9,12C509,431,505.8,417,505.8,417l3.7-0.8c0,0,1.4-14.8,0-25.4l25.8,13.2
			c-0.3,0.2-0.5,0.5-0.7,0.8c-3,4.1-2.7,13.5-2.7,13.5L535.3,419.5z"/>
		<path class="st4" d="M532,418.3c-16.6,0.5-21.3-18.9-21.3-18.9l23.9,5.4C531.7,408.9,532,418.3,532,418.3z"/>
		<path class="st2" d="M547,391.9c0.1,2.3-0.1,4.6-0.4,6.9c-1.4,9-6.1,15.3-17.7,14.4c-17-1.4-20.1-18.1-20.1-18.1
			c-1.2,1-2.8,1.5-4.4,1.4c-1.6-0.1-3.1-0.8-4.2-2c-4.2-4.2-2.1-10.5,2-11.3c2.2-0.4,4.4,1.9,6,4c0.1,0.2,0.4,0.4,0.6,0.4
			c0.2,0.1,0.5,0.1,0.7,0c0.2-0.1,0.4-0.2,0.6-0.4c0.1-0.2,0.2-0.5,0.2-0.7v-16.4c0,0,20.7,0.9,33-3.7c0.1,0,0.1,0,0.2-0.1
			c1.8,1.8,2.9,4.3,2.9,6.9c0.3,3.7-0.4,7.8,0,11.3C546.8,387.1,547,389.5,547,391.9z"/>
		<path class="st11" d="M534.7,395.2l1.6-1c0.5-0.3,0.9-0.8,1.1-1.4c0.2-0.6,0.2-1.2-0.1-1.8l-2.7-6.2"/>
		<path d="M528.7,389.3c-0.1,0.2-0.2,0.4-0.3,0.6c-0.2,0.2-0.4,0.3-0.6,0.3c-0.2,0-0.4,0-0.7,0c-0.2-0.1-0.4-0.2-0.5-0.4
			c-0.1-0.2-0.2-0.4-0.3-0.6c0-0.2,0-0.5,0.1-0.7c0.1-0.2,0.3-0.4,0.4-0.5c0.2-0.1,0.4-0.2,0.6-0.2c0.3,0,0.7,0.2,0.9,0.5
			S528.8,388.9,528.7,389.3z"/>
		<path d="M541.6,390.1c0.6,0,1.2-0.7,1.2-1.5c0-0.8-0.5-1.5-1.2-1.5c-0.6,0-1.2,0.7-1.2,1.5C540.4,389.4,541,390.1,541.6,390.1z"/>
		<path class="st11" d="M500.8,387.8c2.5-1.4,5.5,1,5,4.6"/>
		<path class="st11" d="M529.1,401.9c1,1,2.3,1.5,3.7,1.7c1.4,0.1,2.8-0.2,4-1"/>
		<path class="st12" d="M521.9,382.9c0.8-1.1,2-1.9,3.3-2.3c1.3-0.4,2.7-0.3,4,0.2"/>
		<path class="st12" d="M545.3,381c0,0-2.9-3.2-7.6-0.3"/>
		<path class="st13" d="M522.4,399.4c2.3,0,4.1-1.8,4.1-4.1c0-2.3-1.8-4.1-4.1-4.1c-2.3,0-4.1,1.8-4.1,4.1
			C518.3,397.5,520.2,399.4,522.4,399.4z"/>
		<path class="st13" d="M547,391.9c0.1,2.3-0.1,4.6-0.4,6.9c-0.6,0.3-1.3,0.5-2,0.5c-0.5,0-1.1-0.1-1.6-0.3c-0.5-0.2-1-0.5-1.3-0.9
			c-0.4-0.4-0.7-0.8-0.9-1.3c-0.2-0.5-0.3-1-0.3-1.6c0-0.5,0.1-1.1,0.3-1.6c0.2-0.5,0.5-1,0.9-1.3c0.4-0.4,0.8-0.7,1.3-0.9
			c0.5-0.2,1-0.3,1.6-0.3C545.4,391.1,546.3,391.4,547,391.9z"/>
		<path class="st14" d="M555.8,530.8h-21.2c-0.6,0-1.1-0.1-1.7-0.3c-0.5-0.2-1-0.6-1.3-1c-0.4-0.4-0.6-1-0.7-1.5
			c-0.1-0.6-0.1-1.1,0.1-1.7l9-44.3c0.3-1.3,1-2.4,2-3.2c1-0.8,2.3-1.3,3.6-1.4h24.3c0.6,0,1.1,0.1,1.7,0.3c0.5,0.2,1,0.6,1.3,1
			c0.4,0.4,0.6,1,0.7,1.5c0.1,0.6,0.1,1.1-0.1,1.7l-12,44.3c-0.3,1.3-1,2.4-2,3.2C558.3,530.2,557.1,530.7,555.8,530.8z"/>
		<path class="st15" d="M558.8,532.7h-21.2c-0.6,0-1.1-0.1-1.7-0.3c-0.5-0.2-1-0.6-1.3-1s-0.6-1-0.7-1.5s-0.1-1.1,0-1.7l9-44.3
			c0.3-1.3,1-2.4,2-3.2c1-0.8,2.2-1.3,3.6-1.4h21.2c0.6,0,1.1,0.1,1.7,0.3c0.5,0.2,1,0.6,1.3,1c0.4,0.4,0.6,1,0.7,1.5
			c0.1,0.6,0.1,1.1-0.1,1.7l-9,44.3c-0.3,1.3-1,2.4-2,3.2C561.4,532.1,560.1,532.6,558.8,532.7z"/>
		<path class="st2" d="M553.7,523.7c0,4.4-5.2,8.2-5.2,8.2s1.2,6-8.6,8c-9.9,2-19.9-6.5-19.9-6.5l-63.8,13.5c-1.6,0.3-3.3,0.5-5,0.5
			c-4,0-8-1-11.5-3c-3.5-1.9-6.5-4.7-8.7-8.1c-2.2-3.4-3.5-7.3-3.7-11.3c-0.3-4,0.5-8.1,2.2-11.7l9.2-19.9l3.2-6.9l32.5,19l-2.3,4
			l-3.4,5.8l51.6-1.8c3.3-2.3,6.2-5.1,8.7-8.2c3.4-4.5,4.6-5.6,7.3-3.9c2.7,1.7-0.3,9.4-2.6,12.4c8.2,4.6,18.1,1,22.1,1.6
			C559.8,515.9,559.9,520.6,553.7,523.7z"/>
		<path class="st11" d="M553.7,523.7c-5.1,2.2-17.5,0.2-21.1-2.1"/>
		<path class="st11" d="M548.4,531.9c-7,1.4-14.9,0.9-18.8-3.1"/>
		<path class="st16" d="M546.2,498.4c-0.3,0-0.6,0-0.9-0.2c-0.3-0.1-0.5-0.3-0.7-0.5c-0.2-0.2-0.3-0.5-0.4-0.8
			c-0.1-0.3-0.1-0.6,0-0.9l1.7-8.6c0.1-0.7,0.5-1.2,1-1.7c0.5-0.4,1.2-0.7,1.8-0.7c0.3,0,0.6,0,0.9,0.2c0.3,0.1,0.5,0.3,0.7,0.5
			c0.2,0.2,0.3,0.5,0.4,0.8c0.1,0.3,0.1,0.6,0,0.9l-1.7,8.6c-0.1,0.7-0.5,1.2-1,1.7C547.5,498.2,546.8,498.4,546.2,498.4z"/>
		<path class="st11" d="M468.6,515.2h-17.1"/>
		<path class="st11" d="M570.5,521.6l9.1-11.1"/>
		<path class="st9" d="M474.3,505.4l18.6-35.7"/>
		<path class="st4" d="M474.3,505.4l-2.3,4l-33.4-16l3.2-6.9L474.3,505.4z"/>
		<path class="st9" d="M517.8,646.4l11.8-38.5"/>
		<path class="st3" d="M406,818.9l37.3-21.6l7.1,10h16.3l1.8,15.1h-61.4c-0.4,0-0.8-0.1-1.2-0.4c-0.3-0.3-0.6-0.6-0.7-1
			c-0.1-0.4-0.1-0.8,0.1-1.2C405.3,819.4,405.6,819.1,406,818.9z"/>
		<path class="st5" d="M476.8,779.9l-32.8-6.8c-2.2-0.5-4.4,1-4.9,3.2l-1.1,5.2c-0.5,2.2,1,4.4,3.2,4.9l32.8,6.8
			c2.2,0.5,4.4-1,4.9-3.2l1.1-5.2C480.4,782.5,479,780.3,476.8,779.9z"/>
		<path class="st9" d="M443.3,773.1l34.1,7"/>
		<path class="st5" d="M582.8,773.5l-32.9,6.1c-2.2,0.4-3.7,2.6-3.3,4.8l1,5.2c0.4,2.2,2.6,3.7,4.8,3.3l32.9-6.1
			c2.2-0.4,3.7-2.6,3.3-4.8l-1-5.2C587.2,774.6,585.1,773.1,582.8,773.5z"/>
		<path class="st9" d="M549.3,779.8l34.2-6.3"/>
		<path class="st9" d="M483.6,555.7l74.7-11"/>
		<path class="st6" d="M528.7,612.6l-4.1,62.7l-6.6-28.3l0-1.4L528.7,612.6z"/>
		<path class="st2" d="M818,424.8l-16.3,61.3c-0.6,2.3-1.7,4.5-3.2,6.4c-1.5,1.9-3.3,3.5-5.4,4.6c-2.1,1.2-4.4,1.9-6.8,2.2
			c-2.4,0.3-4.8,0-7.1-0.7l-11-3.3l33.1-77.9L818,424.8z"/>
		<path class="st4" d="M808.1,407.8c-1.3-1.6-11.6,3.9-14.1,4.4c-2.5,0.6-0.3,6.8,4.3,6.2c4.6-0.6,6-5.4,6-5.4L808.1,407.8z"/>
		<path class="st14" d="M800.5,394.6l-0.3,40.1l4.3-0.9v-39.1c0-0.4-0.1-0.8-0.4-1.2c-0.2-0.3-0.6-0.6-1-0.7
			c-0.3-0.1-0.6-0.1-0.9-0.1c-0.3,0-0.6,0.2-0.9,0.4c-0.3,0.2-0.5,0.4-0.6,0.7C800.6,394,800.5,394.3,800.5,394.6z"/>
		<path class="st2" d="M806.7,408.5c0,0-13.2,13.3-10.7,17.1c2.6,3.8,10.7-3.1,12.3-5.3c-0.2,4.4,5.5,8.6,8.8,8.1
			c5.1-0.8,7.2-6,5.6-8.3c-1.6-2.4-11.1-7.9-11.1-7.9S809.2,405,806.7,408.5z"/>
		<path class="st2" d="M677.6,777.5l-4.7,24.3L680,814l17.1-6.7l6.9-23.8"/>
		<path class="st3" d="M636.4,818.9l37.3-21.6l7.1,10H697l1.8,15.1h-61.4c-0.4,0-0.8-0.1-1.2-0.4c-0.3-0.3-0.6-0.6-0.7-1
			c-0.1-0.4-0.1-0.8,0.1-1.2C635.8,819.4,636,819.1,636.4,818.9z"/>
		<path class="st2" d="M837.9,777.5l4.7,24.3l-7.1,12.2l-17.1-6.7l-6.9-23.8"/>
		<path class="st3" d="M879.1,818.9l-37.3-21.6l-7.1,10h-16.3l-1.8,15.1h61.4c0.4,0,0.8-0.1,1.2-0.4c0.3-0.3,0.6-0.6,0.7-1
			c0.1-0.4,0.1-0.8-0.1-1.2C879.8,819.4,879.5,819.1,879.1,818.9z"/>
		<path class="st7" d="M841,768.9l-35.2,7.7l-53.8-180l-42.9,176.9l-34.9-5.1l22.4-188l3.4-29l52.2-4l35.1-2.7l0.6,2.7l0.4,1.6
			L841,768.9z"/>
		<path class="st17" d="M788.4,548.9l-91.7,31.4l3.4-29l52.2-4H788L788.4,548.9z"/>
		<path class="st18" d="M790.7,543.3c0.1,1.1-0.1,2.2-0.8,3.1c-0.7,0.9-1.6,1.5-2.7,1.6l-84.1,12.4c-0.7,0.1-1.4,0-2-0.2
			c-0.6-0.2-1.2-0.5-1.8-1c-0.5-0.5-0.9-1-1.2-1.6c-0.3-0.6-0.4-1.3-0.4-2l2.4-65.9l1.8-48l12.8-28l2.7-5.8H747l3.2,0.4
			c0.8,0.1,1.6,0.2,2.4,0.4c6.3,1.2,12.2,3.9,17.3,7.7c5.1,3.9,9.2,8.9,12.1,14.6l18.2,36.6L782.9,485L790.7,543.3z"/>
		<path class="st18" d="M712.8,434.3c-0.5,1.3-0.8,2.7-0.7,4.2l3.2,42.4l-2.7,1.6l-12.4,7.3l-15.5,9.1l-2.6,1.5l-4.9-42.2
			c-1.1-9,0.8-18.1,5.2-26.1c4.5-7.9,11.3-14.2,19.5-18l10.5-4.8l5.1-2.3l3.6,1l2.2,0.6l-4.2,10.2L712.8,434.3z"/>
		<g class="st8">
			<path class="st1" d="M684.3,542.3c0,0.6-0.2,1.2-0.5,1.7c-0.3,0.5-0.8,0.9-1.4,1.1c-0.6,0.2-1.2,0.3-1.8,0.2
				c-0.6-0.1-1.1-0.4-1.6-0.8c-0.4-0.4-0.7-1-0.8-1.6c-0.1-0.6-0.1-1.2,0.2-1.8c0.2-0.6,0.6-1,1.1-1.4c0.5-0.3,1.1-0.5,1.7-0.5
				c0.8,0,1.6,0.3,2.2,0.9C684,540.7,684.3,541.5,684.3,542.3z"/>
		</g>
		<g class="st8">
			<path class="st1" d="M702.4,542.3c0,0.6-0.2,1.2-0.5,1.7c-0.3,0.5-0.8,0.9-1.4,1.1c-0.6,0.2-1.2,0.3-1.8,0.2
				c-0.6-0.1-1.1-0.4-1.6-0.8c-0.4-0.4-0.7-1-0.8-1.6c-0.1-0.6-0.1-1.2,0.2-1.8c0.2-0.6,0.6-1,1.1-1.4c0.5-0.3,1.1-0.5,1.7-0.5
				c0.4,0,0.8,0.1,1.2,0.2c0.4,0.2,0.7,0.4,1,0.7c0.3,0.3,0.5,0.6,0.7,1C702.3,541.5,702.4,541.9,702.4,542.3z"/>
		</g>
		<g class="st8">
			<path class="st1" d="M720.4,542.3c0,0.6-0.2,1.2-0.5,1.7c-0.3,0.5-0.8,0.9-1.4,1.1c-0.6,0.2-1.2,0.3-1.8,0.2
				c-0.6-0.1-1.1-0.4-1.6-0.8c-0.4-0.4-0.7-1-0.8-1.6c-0.1-0.6-0.1-1.2,0.2-1.8c0.2-0.6,0.6-1,1.1-1.4c0.5-0.3,1.1-0.5,1.7-0.5
				c0.8,0,1.6,0.3,2.2,0.9C720,540.7,720.4,541.5,720.4,542.3z"/>
		</g>
		<g class="st8">
			<path class="st1" d="M738.4,542.3c0,0.6-0.2,1.2-0.5,1.7c-0.3,0.5-0.8,0.9-1.4,1.1c-0.6,0.2-1.2,0.3-1.8,0.2
				c-0.6-0.1-1.1-0.4-1.6-0.8c-0.4-0.4-0.7-1-0.8-1.6c-0.1-0.6-0.1-1.2,0.2-1.8c0.2-0.6,0.6-1,1.1-1.4c0.5-0.3,1.1-0.5,1.7-0.5
				c0.4,0,0.8,0.1,1.2,0.2c0.4,0.2,0.7,0.4,1,0.7c0.3,0.3,0.5,0.6,0.7,1C738.3,541.5,738.4,541.9,738.4,542.3z"/>
		</g>
		<g class="st8">
			<path class="st1" d="M756.4,542.3c0,0.6-0.2,1.2-0.5,1.7c-0.3,0.5-0.8,0.9-1.4,1.1c-0.6,0.2-1.2,0.3-1.8,0.2
				c-0.6-0.1-1.1-0.4-1.6-0.8c-0.4-0.4-0.7-1-0.8-1.6c-0.1-0.6-0.1-1.2,0.2-1.8c0.2-0.6,0.6-1,1.1-1.4c0.5-0.3,1.1-0.5,1.7-0.5
				c0.8,0,1.6,0.3,2.2,0.9C756.1,540.7,756.4,541.5,756.4,542.3z"/>
		</g>
		<g class="st8">
			<path class="st1" d="M774.4,542.3c0,0.6-0.2,1.2-0.5,1.7c-0.3,0.5-0.8,0.9-1.4,1.1c-0.6,0.2-1.2,0.3-1.8,0.2
				c-0.6-0.1-1.1-0.4-1.6-0.8c-0.4-0.4-0.7-1-0.8-1.6c-0.1-0.6-0.1-1.2,0.2-1.8c0.2-0.6,0.6-1,1.1-1.4c0.5-0.3,1.1-0.5,1.7-0.5
				c0.4,0,0.8,0.1,1.2,0.2c0.4,0.2,0.7,0.4,1,0.7c0.3,0.3,0.5,0.6,0.7,1C774.3,541.5,774.4,541.9,774.4,542.3z"/>
		</g>
		<g class="st8">
			<path class="st1" d="M792.4,542.3c0,0.6-0.2,1.2-0.5,1.7c-0.3,0.5-0.8,0.9-1.4,1.1c-0.6,0.2-1.2,0.3-1.8,0.2
				c-0.6-0.1-1.1-0.4-1.6-0.8c-0.4-0.4-0.7-1-0.8-1.6c-0.1-0.6-0.1-1.2,0.2-1.8c0.2-0.6,0.6-1,1.1-1.4c0.5-0.3,1.1-0.5,1.7-0.5
				c0.8,0,1.6,0.3,2.2,0.9C792.1,540.7,792.4,541.5,792.4,542.3z"/>
		</g>
		<g class="st8">
			<path class="st1" d="M810.5,542.3c0,0.6-0.2,1.2-0.5,1.7c-0.3,0.5-0.8,0.9-1.4,1.1c-0.6,0.2-1.2,0.3-1.8,0.2
				c-0.6-0.1-1.1-0.4-1.6-0.8c-0.4-0.4-0.7-1-0.8-1.6c-0.1-0.6-0.1-1.2,0.2-1.8c0.2-0.6,0.6-1,1.1-1.4c0.5-0.3,1.1-0.5,1.7-0.5
				c0.4,0,0.8,0.1,1.2,0.2c0.4,0.2,0.7,0.4,1,0.7c0.3,0.3,0.5,0.6,0.7,1C810.4,541.5,810.5,541.9,810.5,542.3z"/>
		</g>
		<g class="st8">
			<path class="st1" d="M684.3,525.5c0,0.6-0.2,1.2-0.5,1.7c-0.3,0.5-0.8,0.9-1.4,1.1c-0.6,0.2-1.2,0.3-1.8,0.2
				c-0.6-0.1-1.1-0.4-1.6-0.8c-0.4-0.4-0.7-1-0.8-1.6c-0.1-0.6-0.1-1.2,0.2-1.8c0.2-0.6,0.6-1,1.1-1.4c0.5-0.3,1.1-0.5,1.7-0.5
				c0.8,0,1.6,0.3,2.2,0.9C684,523.9,684.3,524.7,684.3,525.5z"/>
		</g>
		<g class="st8">
			<path class="st1" d="M702.4,525.5c0,0.6-0.2,1.2-0.5,1.7c-0.3,0.5-0.8,0.9-1.4,1.1c-0.6,0.2-1.2,0.3-1.8,0.2
				c-0.6-0.1-1.1-0.4-1.6-0.8c-0.4-0.4-0.7-1-0.8-1.6c-0.1-0.6-0.1-1.2,0.2-1.8c0.2-0.6,0.6-1,1.1-1.4s1.1-0.5,1.7-0.5
				c0.4,0,0.8,0.1,1.2,0.2c0.4,0.2,0.7,0.4,1,0.7c0.3,0.3,0.5,0.6,0.7,1C702.3,524.7,702.4,525.1,702.4,525.5z"/>
		</g>
		<g class="st8">
			<path class="st1" d="M720.4,525.5c0,0.6-0.2,1.2-0.5,1.7c-0.3,0.5-0.8,0.9-1.4,1.1c-0.6,0.2-1.2,0.3-1.8,0.2
				c-0.6-0.1-1.1-0.4-1.6-0.8c-0.4-0.4-0.7-1-0.8-1.6c-0.1-0.6-0.1-1.2,0.2-1.8c0.2-0.6,0.6-1,1.1-1.4c0.5-0.3,1.1-0.5,1.7-0.5
				c0.8,0,1.6,0.3,2.2,0.9C720,523.9,720.4,524.7,720.4,525.5z"/>
		</g>
		<g class="st8">
			<path class="st1" d="M738.4,525.5c0,0.6-0.2,1.2-0.5,1.7c-0.3,0.5-0.8,0.9-1.4,1.1c-0.6,0.2-1.2,0.3-1.8,0.2
				c-0.6-0.1-1.1-0.4-1.6-0.8c-0.4-0.4-0.7-1-0.8-1.6c-0.1-0.6-0.1-1.2,0.2-1.8c0.2-0.6,0.6-1,1.1-1.4s1.1-0.5,1.7-0.5
				c0.4,0,0.8,0.1,1.2,0.2c0.4,0.2,0.7,0.4,1,0.7c0.3,0.3,0.5,0.6,0.7,1C738.3,524.7,738.4,525.1,738.4,525.5z"/>
		</g>
		<g class="st8">
			<path class="st1" d="M756.4,525.5c0,0.6-0.2,1.2-0.5,1.7c-0.3,0.5-0.8,0.9-1.4,1.1c-0.6,0.2-1.2,0.3-1.8,0.2
				c-0.6-0.1-1.1-0.4-1.6-0.8c-0.4-0.4-0.7-1-0.8-1.6c-0.1-0.6-0.1-1.2,0.2-1.8c0.2-0.6,0.6-1,1.1-1.4c0.5-0.3,1.1-0.5,1.7-0.5
				c0.8,0,1.6,0.3,2.2,0.9C756.1,523.9,756.4,524.7,756.4,525.5z"/>
		</g>
		<g class="st8">
			<path class="st1" d="M774.4,525.5c0,0.6-0.2,1.2-0.5,1.7c-0.3,0.5-0.8,0.9-1.4,1.1c-0.6,0.2-1.2,0.3-1.8,0.2
				c-0.6-0.1-1.1-0.4-1.6-0.8c-0.4-0.4-0.7-1-0.8-1.6c-0.1-0.6-0.1-1.2,0.2-1.8c0.2-0.6,0.6-1,1.1-1.4s1.1-0.5,1.7-0.5
				c0.4,0,0.8,0.1,1.2,0.2c0.4,0.2,0.7,0.4,1,0.7c0.3,0.3,0.5,0.6,0.7,1C774.3,524.7,774.4,525.1,774.4,525.5z"/>
		</g>
		<g class="st8">
			<path class="st1" d="M792.4,525.5c0,0.6-0.2,1.2-0.5,1.7c-0.3,0.5-0.8,0.9-1.4,1.1c-0.6,0.2-1.2,0.3-1.8,0.2
				c-0.6-0.1-1.1-0.4-1.6-0.8c-0.4-0.4-0.7-1-0.8-1.6c-0.1-0.6-0.1-1.2,0.2-1.8c0.2-0.6,0.6-1,1.1-1.4c0.5-0.3,1.1-0.5,1.7-0.5
				c0.8,0,1.6,0.3,2.2,0.9C792.1,523.9,792.4,524.7,792.4,525.5z"/>
		</g>
		<g class="st8">
			<path class="st1" d="M810.5,525.5c0,0.6-0.2,1.2-0.5,1.7c-0.3,0.5-0.8,0.9-1.4,1.1c-0.6,0.2-1.2,0.3-1.8,0.2
				c-0.6-0.1-1.1-0.4-1.6-0.8c-0.4-0.4-0.7-1-0.8-1.6c-0.1-0.6-0.1-1.2,0.2-1.8c0.2-0.6,0.6-1,1.1-1.4c0.5-0.3,1.1-0.5,1.7-0.5
				c0.4,0,0.8,0.1,1.2,0.2c0.4,0.2,0.7,0.4,1,0.7c0.3,0.3,0.5,0.6,0.7,1C810.4,524.7,810.5,525.1,810.5,525.5z"/>
		</g>
		<g class="st8">
			<path class="st1" d="M681.3,511.7c1.7,0,3-1.4,3-3s-1.4-3-3-3c-1.7,0-3,1.4-3,3S679.6,511.7,681.3,511.7z"/>
		</g>
		<g class="st8">
			<path class="st1" d="M702.4,508.7c0,0.6-0.2,1.2-0.5,1.7c-0.3,0.5-0.8,0.9-1.4,1.1c-0.6,0.2-1.2,0.3-1.8,0.2
				c-0.6-0.1-1.1-0.4-1.6-0.8c-0.4-0.4-0.7-1-0.8-1.6c-0.1-0.6-0.1-1.2,0.2-1.8c0.2-0.6,0.6-1,1.1-1.4c0.5-0.3,1.1-0.5,1.7-0.5
				c0.4,0,0.8,0.1,1.2,0.2c0.4,0.2,0.7,0.4,1,0.7c0.3,0.3,0.5,0.6,0.7,1C702.3,507.9,702.4,508.3,702.4,508.7z"/>
		</g>
		<g class="st8">
			<path class="st1" d="M720.4,508.7c0,0.6-0.2,1.2-0.5,1.7c-0.3,0.5-0.8,0.9-1.4,1.1c-0.6,0.2-1.2,0.3-1.8,0.2
				c-0.6-0.1-1.1-0.4-1.6-0.8c-0.4-0.4-0.7-1-0.8-1.6c-0.1-0.6-0.1-1.2,0.2-1.8c0.2-0.6,0.6-1,1.1-1.4c0.5-0.3,1.1-0.5,1.7-0.5
				c0.4,0,0.8,0.1,1.2,0.2c0.4,0.2,0.7,0.4,1,0.7c0.3,0.3,0.5,0.6,0.7,1C720.3,507.9,720.4,508.3,720.4,508.7z"/>
		</g>
		<g class="st8">
			<path class="st1" d="M738.4,508.7c0,0.6-0.2,1.2-0.5,1.7c-0.3,0.5-0.8,0.9-1.4,1.1c-0.6,0.2-1.2,0.3-1.8,0.2
				c-0.6-0.1-1.1-0.4-1.6-0.8c-0.4-0.4-0.7-1-0.8-1.6c-0.1-0.6-0.1-1.2,0.2-1.8c0.2-0.6,0.6-1,1.1-1.4c0.5-0.3,1.1-0.5,1.7-0.5
				c0.4,0,0.8,0.1,1.2,0.2c0.4,0.2,0.7,0.4,1,0.7c0.3,0.3,0.5,0.6,0.7,1C738.3,507.9,738.4,508.3,738.4,508.7z"/>
		</g>
		<g class="st8">
			<path class="st1" d="M756.4,508.7c0,0.6-0.2,1.2-0.5,1.7c-0.3,0.5-0.8,0.9-1.4,1.1c-0.6,0.2-1.2,0.3-1.8,0.2
				c-0.6-0.1-1.1-0.4-1.6-0.8c-0.4-0.4-0.7-1-0.8-1.6c-0.1-0.6-0.1-1.2,0.2-1.8c0.2-0.6,0.6-1,1.1-1.4c0.5-0.3,1.1-0.5,1.7-0.5
				c0.4,0,0.8,0.1,1.2,0.2c0.4,0.2,0.7,0.4,1,0.7c0.3,0.3,0.5,0.6,0.7,1C756.3,507.9,756.4,508.3,756.4,508.7z"/>
		</g>
		<g class="st8">
			<path class="st1" d="M771.4,511.7c1.7,0,3-1.4,3-3s-1.4-3-3-3c-1.7,0-3,1.4-3,3S769.7,511.7,771.4,511.7z"/>
		</g>
		<g class="st8">
			<path class="st1" d="M789.4,511.7c1.7,0,3-1.4,3-3s-1.4-3-3-3c-1.7,0-3,1.4-3,3S787.7,511.7,789.4,511.7z"/>
		</g>
		<g class="st8">
			<path class="st1" d="M807.4,511.7c1.7,0,3-1.4,3-3s-1.4-3-3-3c-1.7,0-3,1.4-3,3S805.7,511.7,807.4,511.7z"/>
		</g>
		<g class="st8">
			<path class="st1" d="M681.3,494.9c1.7,0,3-1.4,3-3c0-1.7-1.4-3-3-3c-1.7,0-3,1.4-3,3C678.2,493.5,679.6,494.9,681.3,494.9z"/>
		</g>
		<g class="st8">
			<path class="st1" d="M702.4,491.9c0,0.6-0.2,1.2-0.5,1.7c-0.3,0.5-0.8,0.9-1.4,1.1c-0.6,0.2-1.2,0.3-1.8,0.2
				c-0.6-0.1-1.1-0.4-1.6-0.8c-0.4-0.4-0.7-1-0.8-1.6c-0.1-0.6-0.1-1.2,0.2-1.8c0.2-0.6,0.6-1,1.1-1.4s1.1-0.5,1.7-0.5
				c0.4,0,0.8,0.1,1.2,0.2c0.4,0.2,0.7,0.4,1,0.7c0.3,0.3,0.5,0.6,0.7,1C702.3,491.1,702.4,491.5,702.4,491.9z"/>
		</g>
		<g class="st8">
			<path class="st1" d="M720.4,491.9c0,0.6-0.2,1.2-0.5,1.7c-0.3,0.5-0.8,0.9-1.4,1.1c-0.6,0.2-1.2,0.3-1.8,0.2
				c-0.6-0.1-1.1-0.4-1.6-0.8c-0.4-0.4-0.7-1-0.8-1.6c-0.1-0.6-0.1-1.2,0.2-1.8s0.6-1,1.1-1.4c0.5-0.3,1.1-0.5,1.7-0.5
				c0.8,0,1.6,0.3,2.2,0.9C720,490.3,720.4,491,720.4,491.9z"/>
		</g>
		<g class="st8">
			<path class="st1" d="M738.4,491.9c0,0.6-0.2,1.2-0.5,1.7c-0.3,0.5-0.8,0.9-1.4,1.1c-0.6,0.2-1.2,0.3-1.8,0.2
				c-0.6-0.1-1.1-0.4-1.6-0.8c-0.4-0.4-0.7-1-0.8-1.6c-0.1-0.6-0.1-1.2,0.2-1.8c0.2-0.6,0.6-1,1.1-1.4s1.1-0.5,1.7-0.5
				c0.4,0,0.8,0.1,1.2,0.2c0.4,0.2,0.7,0.4,1,0.7c0.3,0.3,0.5,0.6,0.7,1C738.3,491.1,738.4,491.5,738.4,491.9z"/>
		</g>
		<g class="st8">
			<path class="st1" d="M756.4,491.9c0,0.6-0.2,1.2-0.5,1.7c-0.3,0.5-0.8,0.9-1.4,1.1c-0.6,0.2-1.2,0.3-1.8,0.2
				c-0.6-0.1-1.1-0.4-1.6-0.8c-0.4-0.4-0.7-1-0.8-1.6c-0.1-0.6-0.1-1.2,0.2-1.8c0.2-0.6,0.6-1,1.1-1.4c0.5-0.3,1.1-0.5,1.7-0.5
				c0.8,0,1.6,0.3,2.2,0.9C756.1,490.3,756.4,491,756.4,491.9z"/>
		</g>
		<g class="st8">
			<path class="st1" d="M771.4,494.9c1.7,0,3-1.4,3-3c0-1.7-1.4-3-3-3c-1.7,0-3,1.4-3,3C768.3,493.5,769.7,494.9,771.4,494.9z"/>
		</g>
		<g class="st8">
			<path class="st1" d="M789.4,494.9c1.7,0,3-1.4,3-3c0-1.7-1.4-3-3-3c-1.7,0-3,1.4-3,3C786.4,493.5,787.7,494.9,789.4,494.9z"/>
		</g>
		<g class="st8">
			<path class="st1" d="M807.4,494.9c1.7,0,3-1.4,3-3c0-1.7-1.4-3-3-3c-1.7,0-3,1.4-3,3C804.4,493.5,805.7,494.9,807.4,494.9z"/>
		</g>
		<g class="st8">
			<path class="st1" d="M684.3,475c0,0.6-0.2,1.2-0.5,1.7c-0.3,0.5-0.8,0.9-1.4,1.1c-0.6,0.2-1.2,0.3-1.8,0.2
				c-0.6-0.1-1.1-0.4-1.6-0.8c-0.4-0.4-0.7-1-0.8-1.6c-0.1-0.6-0.1-1.2,0.2-1.8c0.2-0.6,0.6-1,1.1-1.4c0.5-0.3,1.1-0.5,1.7-0.5
				c0.8,0,1.6,0.3,2.2,0.9C684,473.5,684.3,474.2,684.3,475z"/>
		</g>
		<g class="st8">
			<path class="st1" d="M702.4,475c0,0.6-0.2,1.2-0.5,1.7c-0.3,0.5-0.8,0.9-1.4,1.1c-0.6,0.2-1.2,0.3-1.8,0.2
				c-0.6-0.1-1.1-0.4-1.6-0.8c-0.4-0.4-0.7-1-0.8-1.6c-0.1-0.6-0.1-1.2,0.2-1.8c0.2-0.6,0.6-1,1.1-1.4c0.5-0.3,1.1-0.5,1.7-0.5
				c0.4,0,0.8,0.1,1.2,0.2c0.4,0.2,0.7,0.4,1,0.7c0.3,0.3,0.5,0.6,0.7,1C702.3,474.2,702.4,474.6,702.4,475z"/>
		</g>
		<g class="st8">
			<path class="st1" d="M720.4,475c0,0.6-0.2,1.2-0.5,1.7c-0.3,0.5-0.8,0.9-1.4,1.1c-0.6,0.2-1.2,0.3-1.8,0.2
				c-0.6-0.1-1.1-0.4-1.6-0.8c-0.4-0.4-0.7-1-0.8-1.6c-0.1-0.6-0.1-1.2,0.2-1.8s0.6-1,1.1-1.4c0.5-0.3,1.1-0.5,1.7-0.5
				c0.8,0,1.6,0.3,2.2,0.9C720,473.5,720.4,474.2,720.4,475z"/>
		</g>
		<g class="st8">
			<path class="st1" d="M738.4,475c0,0.6-0.2,1.2-0.5,1.7c-0.3,0.5-0.8,0.9-1.4,1.1c-0.6,0.2-1.2,0.3-1.8,0.2
				c-0.6-0.1-1.1-0.4-1.6-0.8c-0.4-0.4-0.7-1-0.8-1.6c-0.1-0.6-0.1-1.2,0.2-1.8c0.2-0.6,0.6-1,1.1-1.4c0.5-0.3,1.1-0.5,1.7-0.5
				c0.4,0,0.8,0.1,1.2,0.2c0.4,0.2,0.7,0.4,1,0.7c0.3,0.3,0.5,0.6,0.7,1C738.3,474.2,738.4,474.6,738.4,475z"/>
		</g>
		<g class="st8">
			<path class="st1" d="M756.4,475c0,0.6-0.2,1.2-0.5,1.7c-0.3,0.5-0.8,0.9-1.4,1.1c-0.6,0.2-1.2,0.3-1.8,0.2
				c-0.6-0.1-1.1-0.4-1.6-0.8c-0.4-0.4-0.7-1-0.8-1.6c-0.1-0.6-0.1-1.2,0.2-1.8c0.2-0.6,0.6-1,1.1-1.4c0.5-0.3,1.1-0.5,1.7-0.5
				c0.8,0,1.6,0.3,2.2,0.9C756.1,473.5,756.4,474.2,756.4,475z"/>
		</g>
		<g class="st8">
			<path class="st1" d="M774.4,475c0,0.6-0.2,1.2-0.5,1.7c-0.3,0.5-0.8,0.9-1.4,1.1c-0.6,0.2-1.2,0.3-1.8,0.2
				c-0.6-0.1-1.1-0.4-1.6-0.8c-0.4-0.4-0.7-1-0.8-1.6c-0.1-0.6-0.1-1.2,0.2-1.8c0.2-0.6,0.6-1,1.1-1.4c0.5-0.3,1.1-0.5,1.7-0.5
				c0.4,0,0.8,0.1,1.2,0.2c0.4,0.2,0.7,0.4,1,0.7c0.3,0.3,0.5,0.6,0.7,1C774.3,474.2,774.4,474.6,774.4,475z"/>
		</g>
		<g class="st8">
			<path class="st1" d="M792.4,475c0,0.6-0.2,1.2-0.5,1.7c-0.3,0.5-0.8,0.9-1.4,1.1c-0.6,0.2-1.2,0.3-1.8,0.2
				c-0.6-0.1-1.1-0.4-1.6-0.8c-0.4-0.4-0.7-1-0.8-1.6c-0.1-0.6-0.1-1.2,0.2-1.8c0.2-0.6,0.6-1,1.1-1.4c0.5-0.3,1.1-0.5,1.7-0.5
				c0.8,0,1.6,0.3,2.2,0.9C792.1,473.5,792.4,474.2,792.4,475z"/>
		</g>
		<g class="st8">
			<path class="st1" d="M810.5,475c0,0.6-0.2,1.2-0.5,1.7c-0.3,0.5-0.8,0.9-1.4,1.1c-0.6,0.2-1.2,0.3-1.8,0.2
				c-0.6-0.1-1.1-0.4-1.6-0.8c-0.4-0.4-0.7-1-0.8-1.6c-0.1-0.6-0.1-1.2,0.2-1.8c0.2-0.6,0.6-1,1.1-1.4c0.5-0.3,1.1-0.5,1.7-0.5
				c0.4,0,0.8,0.1,1.2,0.2c0.4,0.2,0.7,0.4,1,0.7c0.3,0.3,0.5,0.6,0.7,1C810.4,474.2,810.5,474.6,810.5,475z"/>
		</g>
		<g class="st8">
			<path class="st1" d="M684.3,458.2c0,0.6-0.2,1.2-0.5,1.7c-0.3,0.5-0.8,0.9-1.4,1.1c-0.6,0.2-1.2,0.3-1.8,0.2
				c-0.6-0.1-1.1-0.4-1.6-0.8c-0.4-0.4-0.7-1-0.8-1.6c-0.1-0.6-0.1-1.2,0.2-1.8c0.2-0.6,0.6-1,1.1-1.4c0.5-0.3,1.1-0.5,1.7-0.5
				c0.4,0,0.8,0.1,1.2,0.2c0.4,0.2,0.7,0.4,1,0.7c0.3,0.3,0.5,0.6,0.7,1C684.3,457.4,684.3,457.8,684.3,458.2z"/>
		</g>
		<g class="st8">
			<path class="st1" d="M702.4,458.2c0,0.6-0.2,1.2-0.5,1.7c-0.3,0.5-0.8,0.9-1.4,1.1c-0.6,0.2-1.2,0.3-1.8,0.2
				c-0.6-0.1-1.1-0.4-1.6-0.8c-0.4-0.4-0.7-1-0.8-1.6c-0.1-0.6-0.1-1.2,0.2-1.8c0.2-0.6,0.6-1,1.1-1.4c0.5-0.3,1.1-0.5,1.7-0.5
				c0.4,0,0.8,0.1,1.2,0.2c0.4,0.2,0.7,0.4,1,0.7c0.3,0.3,0.5,0.6,0.7,1C702.3,457.4,702.4,457.8,702.4,458.2z"/>
		</g>
		<g class="st8">
			<path class="st1" d="M720.4,458.2c0,0.6-0.2,1.2-0.5,1.7c-0.3,0.5-0.8,0.9-1.4,1.1c-0.6,0.2-1.2,0.3-1.8,0.2
				c-0.6-0.1-1.1-0.4-1.6-0.8c-0.4-0.4-0.7-1-0.8-1.6c-0.1-0.6-0.1-1.2,0.2-1.8s0.6-1,1.1-1.4c0.5-0.3,1.1-0.5,1.7-0.5
				c0.4,0,0.8,0.1,1.2,0.2c0.4,0.2,0.7,0.4,1,0.7c0.3,0.3,0.5,0.6,0.7,1C720.3,457.4,720.4,457.8,720.4,458.2z"/>
		</g>
		<g class="st8">
			<path class="st1" d="M738.4,458.2c0,0.6-0.2,1.2-0.5,1.7c-0.3,0.5-0.8,0.9-1.4,1.1c-0.6,0.2-1.2,0.3-1.8,0.2
				c-0.6-0.1-1.1-0.4-1.6-0.8c-0.4-0.4-0.7-1-0.8-1.6c-0.1-0.6-0.1-1.2,0.2-1.8c0.2-0.6,0.6-1,1.1-1.4c0.5-0.3,1.1-0.5,1.7-0.5
				c0.4,0,0.8,0.1,1.2,0.2c0.4,0.2,0.7,0.4,1,0.7c0.3,0.3,0.5,0.6,0.7,1C738.3,457.4,738.4,457.8,738.4,458.2z"/>
		</g>
		<g class="st8">
			<path class="st1" d="M756.4,458.2c0,0.6-0.2,1.2-0.5,1.7c-0.3,0.5-0.8,0.9-1.4,1.1c-0.6,0.2-1.2,0.3-1.8,0.2
				c-0.6-0.1-1.1-0.4-1.6-0.8c-0.4-0.4-0.7-1-0.8-1.6c-0.1-0.6-0.1-1.2,0.2-1.8c0.2-0.6,0.6-1,1.1-1.4c0.5-0.3,1.1-0.5,1.7-0.5
				c0.4,0,0.8,0.1,1.2,0.2c0.4,0.2,0.7,0.4,1,0.7c0.3,0.3,0.5,0.6,0.7,1C756.3,457.4,756.4,457.8,756.4,458.2z"/>
		</g>
		<g class="st8">
			<path class="st1" d="M774.4,458.2c0,0.6-0.2,1.2-0.5,1.7c-0.3,0.5-0.8,0.9-1.4,1.1c-0.6,0.2-1.2,0.3-1.8,0.2
				c-0.6-0.1-1.1-0.4-1.6-0.8c-0.4-0.4-0.7-1-0.8-1.6c-0.1-0.6-0.1-1.2,0.2-1.8s0.6-1,1.1-1.4c0.5-0.3,1.1-0.5,1.7-0.5
				c0.4,0,0.8,0.1,1.2,0.2c0.4,0.2,0.7,0.4,1,0.7c0.3,0.3,0.5,0.6,0.7,1C774.3,457.4,774.4,457.8,774.4,458.2z"/>
		</g>
		<g class="st8">
			<path class="st1" d="M792.4,458.2c0,0.6-0.2,1.2-0.5,1.7c-0.3,0.5-0.8,0.9-1.4,1.1c-0.6,0.2-1.2,0.3-1.8,0.2
				c-0.6-0.1-1.1-0.4-1.6-0.8c-0.4-0.4-0.7-1-0.8-1.6c-0.1-0.6-0.1-1.2,0.2-1.8c0.2-0.6,0.6-1,1.1-1.4c0.5-0.3,1.1-0.5,1.7-0.5
				c0.4,0,0.8,0.1,1.2,0.2c0.4,0.2,0.7,0.4,1,0.7c0.3,0.3,0.5,0.6,0.7,1C792.4,457.4,792.4,457.8,792.4,458.2z"/>
		</g>
		<g class="st8">
			<path class="st1" d="M810.5,458.2c0,0.6-0.2,1.2-0.5,1.7c-0.3,0.5-0.8,0.9-1.4,1.1c-0.6,0.2-1.2,0.3-1.8,0.2
				c-0.6-0.1-1.1-0.4-1.6-0.8c-0.4-0.4-0.7-1-0.8-1.6c-0.1-0.6-0.1-1.2,0.2-1.8c0.2-0.6,0.6-1,1.1-1.4c0.5-0.3,1.1-0.5,1.7-0.5
				c0.4,0,0.8,0.1,1.2,0.2c0.4,0.2,0.7,0.4,1,0.7c0.3,0.3,0.5,0.6,0.7,1C810.4,457.4,810.5,457.8,810.5,458.2z"/>
		</g>
		<g class="st8">
			<path class="st1" d="M681.3,444.5c1.7,0,3-1.4,3-3c0-1.7-1.4-3-3-3c-1.7,0-3,1.4-3,3C678.2,443.1,679.6,444.5,681.3,444.5z"/>
		</g>
		<g class="st8">
			<path class="st1" d="M702.4,441.4c0,0.6-0.2,1.2-0.5,1.7c-0.3,0.5-0.8,0.9-1.4,1.1c-0.6,0.2-1.2,0.3-1.8,0.2
				c-0.6-0.1-1.1-0.4-1.6-0.8c-0.4-0.4-0.7-1-0.8-1.6c-0.1-0.6-0.1-1.2,0.2-1.8c0.2-0.6,0.6-1,1.1-1.4c0.5-0.3,1.1-0.5,1.7-0.5
				c0.4,0,0.8,0.1,1.2,0.2c0.4,0.2,0.7,0.4,1,0.7c0.3,0.3,0.5,0.6,0.7,1C702.3,440.6,702.4,441,702.4,441.4z"/>
		</g>
		<g class="st8">
			<path class="st1" d="M720.4,441.4c0,0.6-0.2,1.2-0.5,1.7c-0.3,0.5-0.8,0.9-1.4,1.1c-0.6,0.2-1.2,0.3-1.8,0.2
				c-0.6-0.1-1.1-0.4-1.6-0.8c-0.4-0.4-0.7-1-0.8-1.6c-0.1-0.6-0.1-1.2,0.2-1.8s0.6-1,1.1-1.4c0.5-0.3,1.1-0.5,1.7-0.5
				c0.4,0,0.8,0.1,1.2,0.2c0.4,0.2,0.7,0.4,1,0.7c0.3,0.3,0.5,0.6,0.7,1C720.3,440.6,720.4,441,720.4,441.4z"/>
		</g>
		<g class="st8">
			<path class="st1" d="M738.4,441.4c0,0.6-0.2,1.2-0.5,1.7c-0.3,0.5-0.8,0.9-1.4,1.1c-0.6,0.2-1.2,0.3-1.8,0.2
				c-0.6-0.1-1.1-0.4-1.6-0.8c-0.4-0.4-0.7-1-0.8-1.6c-0.1-0.6-0.1-1.2,0.2-1.8c0.2-0.6,0.6-1,1.1-1.4c0.5-0.3,1.1-0.5,1.7-0.5
				c0.4,0,0.8,0.1,1.2,0.2c0.4,0.2,0.7,0.4,1,0.7c0.3,0.3,0.5,0.6,0.7,1C738.3,440.6,738.4,441,738.4,441.4z"/>
		</g>
		<g class="st8">
			<path class="st1" d="M756.4,441.4c0,0.6-0.2,1.2-0.5,1.7c-0.3,0.5-0.8,0.9-1.4,1.1c-0.6,0.2-1.2,0.3-1.8,0.2
				c-0.6-0.1-1.1-0.4-1.6-0.8c-0.4-0.4-0.7-1-0.8-1.6c-0.1-0.6-0.1-1.2,0.2-1.8c0.2-0.6,0.6-1,1.1-1.4c0.5-0.3,1.1-0.5,1.7-0.5
				c0.4,0,0.8,0.1,1.2,0.2c0.4,0.2,0.7,0.4,1,0.7c0.3,0.3,0.5,0.6,0.7,1C756.3,440.6,756.4,441,756.4,441.4z"/>
		</g>
		<g class="st8">
			<path class="st1" d="M771.4,444.5c1.7,0,3-1.4,3-3c0-1.7-1.4-3-3-3c-1.7,0-3,1.4-3,3C768.3,443.1,769.7,444.5,771.4,444.5z"/>
		</g>
		<g class="st8">
			<path class="st1" d="M789.4,444.5c1.7,0,3-1.4,3-3c0-1.7-1.4-3-3-3c-1.7,0-3,1.4-3,3C786.4,443.1,787.7,444.5,789.4,444.5z"/>
		</g>
		<g class="st8">
			<path class="st1" d="M807.4,444.5c1.7,0,3-1.4,3-3c0-1.7-1.4-3-3-3c-1.7,0-3,1.4-3,3C804.4,443.1,805.7,444.5,807.4,444.5z"/>
		</g>
		<g class="st8">
			<path class="st1" d="M681.3,427.7c1.7,0,3-1.4,3-3c0-1.7-1.4-3-3-3c-1.7,0-3,1.4-3,3C678.2,426.3,679.6,427.7,681.3,427.7z"/>
		</g>
		<g class="st8">
			<path class="st1" d="M702.4,424.6c0,0.6-0.2,1.2-0.5,1.7c-0.3,0.5-0.8,0.9-1.4,1.1c-0.6,0.2-1.2,0.3-1.8,0.2
				c-0.6-0.1-1.1-0.4-1.6-0.8c-0.4-0.4-0.7-1-0.8-1.6c-0.1-0.6-0.1-1.2,0.2-1.8c0.2-0.6,0.6-1,1.1-1.4c0.5-0.3,1.1-0.5,1.7-0.5
				c0.4,0,0.8,0.1,1.2,0.2c0.4,0.2,0.7,0.4,1,0.7c0.3,0.3,0.5,0.6,0.7,1C702.3,423.8,702.4,424.2,702.4,424.6z"/>
		</g>
		<g class="st8">
			<path class="st1" d="M720.4,424.6c0,0.6-0.2,1.2-0.5,1.7c-0.3,0.5-0.8,0.9-1.4,1.1c-0.6,0.2-1.2,0.3-1.8,0.2
				c-0.6-0.1-1.1-0.4-1.6-0.8c-0.4-0.4-0.7-1-0.8-1.6c-0.1-0.6-0.1-1.2,0.2-1.8c0.2-0.6,0.6-1,1.1-1.4c0.5-0.3,1.1-0.5,1.7-0.5
				c0.4,0,0.8,0.1,1.2,0.2c0.4,0.2,0.7,0.4,1,0.7c0.3,0.3,0.5,0.6,0.7,1C720.3,423.8,720.4,424.2,720.4,424.6z"/>
		</g>
		<g class="st8">
			<path class="st1" d="M738.4,424.6c0,0.6-0.2,1.2-0.5,1.7c-0.3,0.5-0.8,0.9-1.4,1.1c-0.6,0.2-1.2,0.3-1.8,0.2
				c-0.6-0.1-1.1-0.4-1.6-0.8c-0.4-0.4-0.7-1-0.8-1.6c-0.1-0.6-0.1-1.2,0.2-1.8c0.2-0.6,0.6-1,1.1-1.4c0.5-0.3,1.1-0.5,1.7-0.5
				c0.4,0,0.8,0.1,1.2,0.2c0.4,0.2,0.7,0.4,1,0.7c0.3,0.3,0.5,0.6,0.7,1C738.3,423.8,738.4,424.2,738.4,424.6z"/>
		</g>
		<g class="st8">
			<path class="st1" d="M756.4,424.6c0,0.6-0.2,1.2-0.5,1.7c-0.3,0.5-0.8,0.9-1.4,1.1c-0.6,0.2-1.2,0.3-1.8,0.2
				c-0.6-0.1-1.1-0.4-1.6-0.8c-0.4-0.4-0.7-1-0.8-1.6c-0.1-0.6-0.1-1.2,0.2-1.8c0.2-0.6,0.6-1,1.1-1.4c0.5-0.3,1.1-0.5,1.7-0.5
				c0.4,0,0.8,0.1,1.2,0.2c0.4,0.2,0.7,0.4,1,0.7c0.3,0.3,0.5,0.6,0.7,1C756.3,423.8,756.4,424.2,756.4,424.6z"/>
		</g>
		<g class="st8">
			<path class="st1" d="M771.4,427.7c1.7,0,3-1.4,3-3c0-1.7-1.4-3-3-3c-1.7,0-3,1.4-3,3C768.3,426.3,769.7,427.7,771.4,427.7z"/>
		</g>
		<g class="st8">
			<path class="st1" d="M789.4,427.7c1.7,0,3-1.4,3-3c0-1.7-1.4-3-3-3c-1.7,0-3,1.4-3,3C786.4,426.3,787.7,427.7,789.4,427.7z"/>
		</g>
		<g class="st8">
			<path class="st1" d="M807.4,427.7c1.7,0,3-1.4,3-3c0-1.7-1.4-3-3-3c-1.7,0-3,1.4-3,3C804.4,426.3,805.7,427.7,807.4,427.7z"/>
		</g>
		<g class="st8">
			<path class="st1" d="M684.3,407.8c0,0.6-0.2,1.2-0.5,1.7c-0.3,0.5-0.8,0.9-1.4,1.1c-0.6,0.2-1.2,0.3-1.8,0.2
				c-0.6-0.1-1.1-0.4-1.6-0.8c-0.4-0.4-0.7-1-0.8-1.6c-0.1-0.6-0.1-1.2,0.2-1.8c0.2-0.6,0.6-1,1.1-1.4c0.5-0.3,1.1-0.5,1.7-0.5
				c0.4,0,0.8,0.1,1.2,0.2c0.4,0.2,0.7,0.4,1,0.7c0.3,0.3,0.5,0.6,0.7,1C684.3,407,684.3,407.4,684.3,407.8z"/>
		</g>
		<g class="st8">
			<path class="st1" d="M702.4,407.8c0,0.6-0.2,1.2-0.5,1.7c-0.3,0.5-0.8,0.9-1.4,1.1c-0.6,0.2-1.2,0.3-1.8,0.2
				c-0.6-0.1-1.1-0.4-1.6-0.8c-0.4-0.4-0.7-1-0.8-1.6c-0.1-0.6-0.1-1.2,0.2-1.8c0.2-0.6,0.6-1,1.1-1.4c0.5-0.3,1.1-0.5,1.7-0.5
				c0.4,0,0.8,0.1,1.2,0.2c0.4,0.2,0.7,0.4,1,0.7c0.3,0.3,0.5,0.6,0.7,1C702.3,407,702.4,407.4,702.4,407.8z"/>
		</g>
		<g class="st8">
			<path class="st1" d="M720.4,407.8c0,0.6-0.2,1.2-0.5,1.7c-0.3,0.5-0.8,0.9-1.4,1.1c-0.6,0.2-1.2,0.3-1.8,0.2
				c-0.6-0.1-1.1-0.4-1.6-0.8c-0.4-0.4-0.7-1-0.8-1.6c-0.1-0.6-0.1-1.2,0.2-1.8c0.2-0.6,0.6-1,1.1-1.4c0.5-0.3,1.1-0.5,1.7-0.5
				c0.4,0,0.8,0.1,1.2,0.2c0.4,0.2,0.7,0.4,1,0.7c0.3,0.3,0.5,0.6,0.7,1C720.3,407,720.4,407.4,720.4,407.8z"/>
		</g>
		<g class="st8">
			<path class="st1" d="M738.4,407.8c0,0.6-0.2,1.2-0.5,1.7c-0.3,0.5-0.8,0.9-1.4,1.1c-0.6,0.2-1.2,0.3-1.8,0.2
				c-0.6-0.1-1.1-0.4-1.6-0.8c-0.4-0.4-0.7-1-0.8-1.6c-0.1-0.6-0.1-1.2,0.2-1.8c0.2-0.6,0.6-1,1.1-1.4c0.5-0.3,1.1-0.5,1.7-0.5
				c0.4,0,0.8,0.1,1.2,0.2c0.4,0.2,0.7,0.4,1,0.7c0.3,0.3,0.5,0.6,0.7,1C738.3,407,738.4,407.4,738.4,407.8z"/>
		</g>
		<g class="st8">
			<path class="st1" d="M756.4,407.8c0,0.6-0.2,1.2-0.5,1.7c-0.3,0.5-0.8,0.9-1.4,1.1c-0.6,0.2-1.2,0.3-1.8,0.2
				c-0.6-0.1-1.1-0.4-1.6-0.8c-0.4-0.4-0.7-1-0.8-1.6c-0.1-0.6-0.1-1.2,0.2-1.8c0.2-0.6,0.6-1,1.1-1.4c0.5-0.3,1.1-0.5,1.7-0.5
				c0.4,0,0.8,0.1,1.2,0.2c0.4,0.2,0.7,0.4,1,0.7c0.3,0.3,0.5,0.6,0.7,1C756.3,407,756.4,407.4,756.4,407.8z"/>
		</g>
		<g class="st8">
			<path class="st1" d="M774.4,407.8c0,0.6-0.2,1.2-0.5,1.7c-0.3,0.5-0.8,0.9-1.4,1.1c-0.6,0.2-1.2,0.3-1.8,0.2
				c-0.6-0.1-1.1-0.4-1.6-0.8c-0.4-0.4-0.7-1-0.8-1.6c-0.1-0.6-0.1-1.2,0.2-1.8c0.2-0.6,0.6-1,1.1-1.4c0.5-0.3,1.1-0.5,1.7-0.5
				c0.4,0,0.8,0.1,1.2,0.2c0.4,0.2,0.7,0.4,1,0.7c0.3,0.3,0.5,0.6,0.7,1C774.3,407,774.4,407.4,774.4,407.8z"/>
		</g>
		<g class="st8">
			<path class="st1" d="M792.4,407.8c0,0.6-0.2,1.2-0.5,1.7c-0.3,0.5-0.8,0.9-1.4,1.1c-0.6,0.2-1.2,0.3-1.8,0.2
				c-0.6-0.1-1.1-0.4-1.6-0.8c-0.4-0.4-0.7-1-0.8-1.6c-0.1-0.6-0.1-1.2,0.2-1.8c0.2-0.6,0.6-1,1.1-1.4c0.5-0.3,1.1-0.5,1.7-0.5
				c0.4,0,0.8,0.1,1.2,0.2c0.4,0.2,0.7,0.4,1,0.7c0.3,0.3,0.5,0.6,0.7,1C792.4,407,792.4,407.4,792.4,407.8z"/>
		</g>
		<g class="st8">
			<path class="st1" d="M810.5,407.8c0,0.6-0.2,1.2-0.5,1.7c-0.3,0.5-0.8,0.9-1.4,1.1c-0.6,0.2-1.2,0.3-1.8,0.2
				c-0.6-0.1-1.1-0.4-1.6-0.8c-0.4-0.4-0.7-1-0.8-1.6c-0.1-0.6-0.1-1.2,0.2-1.8c0.2-0.6,0.6-1,1.1-1.4c0.5-0.3,1.1-0.5,1.7-0.5
				c0.4,0,0.8,0.1,1.2,0.2c0.4,0.2,0.7,0.4,1,0.7c0.3,0.3,0.5,0.6,0.7,1C810.4,407,810.5,407.4,810.5,407.8z"/>
		</g>
		<path class="st14" d="M757.9,476.1l18-39.6c0.3-0.8,0.8-1.4,1.5-2c0.6-0.5,1.4-0.9,2.2-1.1l73-20c1.2-0.3,3.8,2.7,3.2,3.9
			l-26.6,49.3c-0.9,1.7-2.3,3.1-4.1,3.8l-68.7,26L757.9,476.1z"/>
		<path class="st15" d="M759.2,479.1l18-39.6c0.3-0.8,0.8-1.4,1.5-2c0.6-0.5,1.4-0.9,2.2-1.1l73-20c0.3-0.1,0.6-0.1,0.8,0
			c0.3,0.1,0.5,0.2,0.7,0.5c0.2,0.2,0.3,0.5,0.3,0.8c0,0.3,0,0.6-0.1,0.8l-25.1,51.1c-0.9,1.7-2.3,3.1-4.1,3.8l-68.7,26L759.2,479.1
			z"/>
		<path class="st2" d="M776.9,488.4c0,0,1.5,3.4-5.8,10.1c-7.3,6.7-18.3,2.4-18.3,2.4L723.7,523c-3.1,2.4-6.8,3.9-10.7,4.4
			c-3.9,0.6-7.9,0.1-11.6-1.3c-3.7-1.4-7-3.7-9.5-6.7c-2.6-3-4.3-6.6-5.1-10.4l-0.2-1l-1.9-9.3l15.5-9.1l12.4-7.3l0.4,2.3l1.9,10.7
			l31.7-15.5c0,0,6.4-10.2,9.4-13.8c3-3.6,6.5-4.2,7.6-1.9c1.1,2.4-5.8,12-5.8,12s2.6-0.2,10.2-2.9c7.7-2.7,12.7-8.1,14.7-6.5
			c2.1,1.7,0.9,6.5-1.9,10.2c0.1,2.1-0.2,4.1-0.9,6.1C779.4,485.1,778.3,486.9,776.9,488.4z"/>
		<path class="st4" d="M713.1,484.7L686.6,508l-1.9-9.3l15.5-9.1l12.4-7.3L713.1,484.7z"/>
		<path class="st1" d="M752.6,408.6c-1.2,6.9-5.1,13.8-15.5,14.9c-8.2,0.9-14-1.6-17.9-5c-1.7-1.5-3.1-3.1-4.3-5
			c-0.9-1.4-1.7-2.9-2.4-4.4l5.1-2.3l3.6,1H747l3.2,0.4C751,408.3,751.8,408.5,752.6,408.6z"/>
		<path class="st2" d="M737.9,418.9c-14.4,1.6-20.3-12.1-20.3-12.1l3-1.3c0.3-6.1,0.1-12.1-0.6-18.2l4.1,1.1l20.3,5.2
			c-1.9,4.4-1.4,10.6-1.2,12.5c0,0.4,0.1,0.6,0.1,0.6l3.7,1C747,407.8,747.6,417.8,737.9,418.9z"/>
		<path class="st4" d="M743.2,406.2c-8.1,0.2-18.5-2.6-21.6-13.3c-0.2-0.5-0.3-0.9-0.3-1.4c0-0.5,0.2-1,0.4-1.4
			c0.2-0.4,0.6-0.8,1-1.1s0.9-0.5,1.4-0.5l20.3,5.2C742.5,398.1,743,404.2,743.2,406.2z"/>
		<path class="st3" d="M716.5,380.1l-7.4-9.1c-1.8-2.3-2.8-5.1-2.6-8.1c0.2-2.9,1.4-5.7,3.5-7.7c-0.9-2.2-1.4-4.7-1.3-7.1
			c0.1-2.4,0.7-4.8,1.9-7c1.1-2.2,2.7-4,4.6-5.5c1.9-1.5,4.2-2.5,6.5-3l7.5-1.7c1.3-0.3,2.6-0.9,3.7-1.7l7.2-5.3
			c0.9-0.6,1.9-1,2.9-1c1.1,0,2.1,0.2,3,0.8c1.1,0.7,2,1.8,2.3,3.1c0.4,1.3,0.2,2.7-0.4,3.9l-2.2,4.2c-0.1,0.1-0.1,0.2-0.1,0.4
			c0,0.1,0.1,0.2,0.2,0.3c0.1,0.1,0.2,0.1,0.3,0.1c0.1,0,0.2,0,0.3-0.1l13.1-8.2c0.8-0.5,1.8-0.7,2.7-0.6c1,0.1,1.8,0.6,2.5,1.3
			c0.6,0.7,1,1.6,1,2.5c0.1,0.9-0.2,1.9-0.8,2.6l-9,12.7c-0.1,0.1-0.1,0.2-0.1,0.3c0,0.1,0,0.2,0.1,0.3c0.1,0.1,0.2,0.2,0.3,0.2
			c0.1,0,0.2,0,0.3,0l2.2-0.8c1.1-0.4,2.3-0.4,3.4,0c1.1,0.4,2,1.1,2.6,2.1c0.6,1,0.8,2.1,0.7,3.2c-0.1,1.1-0.6,2.2-1.4,3
			c-4.3,4.6-12.4,13.8-13.5,19C749.6,380.6,716.5,380.1,716.5,380.1z"/>
		<path class="st2" d="M752.1,365.9c-0.3,2.2-0.5,4.4-0.5,6.6c0,2,0.4,5.4,0.4,9.1c0.1,2.6-0.2,5.3-0.7,7.9c-1.3,6-4.8,11-13.8,11
			c-18.4,0-20.2-18.2-20.2-18.2c0,0.5-0.2,1.1-0.4,1.5c-0.3,0.5-0.7,0.8-1.2,1.1s-1,0.3-1.5,0.3c-0.5,0-1-0.2-1.5-0.6
			c-3.1-1.5-4.1-8.6-0.6-10.2c2-1,4.2,0.4,5.7,1.6c0.1,0.1,0.3,0.2,0.5,0.2c0.2,0,0.4,0,0.5-0.1c0.2-0.1,0.3-0.2,0.4-0.4
			c0.1-0.2,0.1-0.3,0.1-0.5l-0.7-8.6c5,1.5,23-3.6,30-10.5c0.3,2,1.2,3.9,2.5,5.5c0.4,0.6,0.8,1.3,0.9,2
			C752.2,364.4,752.2,365.2,752.1,365.9z"/>
		<path class="st11" d="M739.1,385.9l1.6-1c0.5-0.3,0.9-0.8,1.1-1.4c0.2-0.6,0.2-1.2-0.1-1.8l-2.7-6.2"/>
		<path d="M733.2,378.5c-0.1,0.2-0.2,0.4-0.3,0.6c-0.2,0.2-0.4,0.3-0.6,0.3c-0.2,0-0.4,0-0.7,0c-0.2-0.1-0.4-0.2-0.5-0.4
			c-0.1-0.2-0.2-0.4-0.3-0.6c0-0.2,0-0.5,0.1-0.7c0.1-0.2,0.3-0.4,0.4-0.5c0.2-0.1,0.4-0.2,0.6-0.2c0.3,0,0.7,0.2,0.9,0.5
			C733.2,377.8,733.3,378.2,733.2,378.5z"/>
		<path d="M747.3,377.7c-0.1,0.2-0.2,0.4-0.3,0.6c-0.2,0.2-0.4,0.3-0.6,0.3c-0.2,0-0.4,0-0.7,0c-0.2-0.1-0.4-0.2-0.5-0.4
			c-0.1-0.2-0.2-0.4-0.3-0.6c0-0.2,0-0.5,0.1-0.7c0.1-0.2,0.3-0.4,0.4-0.5c0.2-0.1,0.4-0.2,0.6-0.2c0.3,0,0.7,0.2,0.9,0.5
			C747.2,377,747.3,377.3,747.3,377.7z"/>
		<path class="st12" d="M726.3,373.6c0.8-1.1,2-1.9,3.3-2.3c1.3-0.4,2.7-0.3,4,0.2"/>
		<path class="st12" d="M749.8,371.7c0,0-2.9-3.2-7.6-0.3"/>
		<path class="st1" d="M733.6,389.5l7,0.3c0,0.5-0.1,0.9-0.3,1.4c-0.2,0.4-0.5,0.8-0.8,1.1c-0.3,0.3-0.8,0.6-1.2,0.7
			c-0.4,0.2-0.9,0.2-1.4,0.2c-0.5,0-0.9-0.1-1.3-0.3c-0.4-0.2-0.8-0.5-1.1-0.8c-0.3-0.3-0.5-0.8-0.7-1.2
			C733.6,390.4,733.6,389.9,733.6,389.5z"/>
		<path class="st11" d="M711.8,377.9c2.1-1.3,3.9,0.3,3.5,3.4"/>
		<path class="st13" d="M732.6,385.5c0,0.8-0.2,1.6-0.7,2.3s-1.1,1.2-1.9,1.5c-0.8,0.3-1.6,0.4-2.4,0.2c-0.8-0.2-1.5-0.6-2.1-1.1
			c-0.6-0.6-1-1.3-1.1-2.1c-0.2-0.8-0.1-1.6,0.2-2.4c0.3-0.8,0.8-1.4,1.5-1.9c0.7-0.5,1.5-0.7,2.3-0.7c0.5,0,1.1,0.1,1.6,0.3
			c0.5,0.2,1,0.5,1.3,0.9c0.4,0.4,0.7,0.8,0.9,1.3C732.5,384.4,732.6,384.9,732.6,385.5z"/>
		<path class="st13" d="M752.1,381.6c0.1,2.6-0.2,5.3-0.7,7.9c-0.3,0.1-0.5,0.1-0.8,0.1c-0.5,0-1.1-0.1-1.6-0.3
			c-0.5-0.2-1-0.5-1.4-0.9c-0.4-0.4-0.7-0.8-0.9-1.3c-0.2-0.5-0.3-1-0.3-1.6c0-0.5,0.1-1.1,0.3-1.6c0.2-0.5,0.5-1,0.9-1.3
			c0.4-0.4,0.9-0.7,1.4-0.9c0.5-0.2,1.1-0.3,1.6-0.3C751.1,381.3,751.6,381.4,752.1,381.6z"/>
		<path class="st11" d="M715,495.4l-11.7,5.9"/>
		<path class="st11" d="M781,477c-2.6,5.1-16.6,7.1-16.6,7.1"/>
		<path class="st11" d="M776.9,488.4c-5.7,6.1-15.1,4.6-15.1,4.6"/>
		<path class="st9" d="M712.6,482.4l-4.9-35.4"/>
		<path class="st9" d="M772.7,510.5l-35.6,30"/>
		<path class="st7" d="M708.2,772l-33.2-4.3c-2.3-0.3-4.3,1.3-4.6,3.6l-0.7,5.3c-0.3,2.3,1.3,4.3,3.6,4.6l33.2,4.3
			c2.3,0.3,4.3-1.3,4.6-3.6l0.7-5.3C712,774.3,710.4,772.3,708.2,772z"/>
		<path class="st9" d="M674.3,767.7l34.5,4.5"/>
		<path class="st7" d="M839.4,765.5l-32.1,9.4c-2.2,0.6-3.4,2.9-2.8,5.1l1.5,5.1c0.6,2.2,2.9,3.4,5.1,2.8l32.1-9.4
			c2.2-0.6,3.4-2.9,2.8-5.1l-1.5-5.1C843.9,766.1,841.6,764.9,839.4,765.5z"/>
		<path class="st9" d="M806.7,775.1l33.4-9.7"/>
		<g class="st8">
			<path class="st1" d="M781.2,442.3c1.9-1.4,4.4-1.4,5.5,0.1c1.1,1.5,0.4,3.8-1.6,5.3s-4.4,1.4-5.5-0.1
				C778.6,446.1,779.3,443.7,781.2,442.3z"/>
		</g>
		<g class="st8">
			<path class="st1" d="M782.2,443.6c0.3-0.1,0.6-0.1,1-0.1s0.6,0.2,0.9,0.4c0.2,0.2,0.4,0.5,0.5,0.8c0.1,0.3,0.1,0.7,0,1
				c-0.1,0.3-0.3,0.6-0.5,0.8c-0.2,0.2-0.5,0.4-0.9,0.4c-0.3,0.1-0.7,0-1-0.1c-0.3-0.1-0.6-0.3-0.8-0.6c-0.2-0.5-0.3-1-0.1-1.5
				C781.4,444.3,781.7,443.8,782.2,443.6z"/>
		</g>
		<path class="st9" d="M754.9,580.3l-9.3,43"/>
		<path class="st15" d="M879.9,462.8h-1C879.3,462.7,879.6,462.7,879.9,462.8z"/>
		<path class="st15" d="M878.9,462.8C878.9,462.8,878.9,462.8,878.9,462.8L878.9,462.8L878.9,462.8z"/>
		<path class="st2" d="M951.9,735.1l-2.4,67.5l7.1,12.2l17.1-6.7l4.5-66.9"/>
		<path class="st18" d="M913.1,819.6l37.3-21.6l7.1,10h16.3l1.8,15.1h-61.4c-0.4,0-0.8-0.1-1.2-0.4c-0.3-0.3-0.6-0.6-0.7-1
			c-0.1-0.4-0.1-0.8,0.1-1.2C912.5,820.1,912.7,819.8,913.1,819.6z"/>
		<path class="st2" d="M1065.9,735.1l21.5,67.5l-7.1,12.2l-17.1-6.7l-23.6-66.9"/>
		<path class="st18" d="M1123.8,819.6l-37.3-21.6l-7.1,10h-16.3l-1.8,15.1h61.4c0.4,0,0.8-0.1,1.2-0.4c0.3-0.3,0.6-0.6,0.7-1
			c0.1-0.4,0.1-0.8-0.1-1.2C1124.5,820.1,1124.2,819.8,1123.8,819.6z"/>
		<path class="st19" d="M954,513l-8.8,254.7l34.9,2.6L993.5,611l52.6,164.1l31-9.7c0,0-42-173.2-46.7-198c-4.7-24.7-2.4-37.7-9.8-55
			L954,513z"/>
		<path class="st3" d="M982,342c-10.1-2.7-17.7,12-15.4,30.2c2.4,18.3-13.4,35.7-11.6,43.2c1.8,7.5,36.7,17.9,60.1,17.7
			c23.4-0.2,30.6-10.4,26.3-17.7c-4.3-7.3-11.2-14.3-10.6-36.2C1031.4,357.3,1016.2,316.5,982,342z"/>
		<path class="st2" d="M933.8,446.3l-13,29.1l-20-47c0,0-2.6-16-4.6-20.6c-2.1-4.5-1.4-10.5-4.1-11.4c-2.8-0.9-3.7,4-3.7,8.2
			c0,2.8-0.3,5.5-0.7,8.2c0,0-11.5-10-12.2-13.2c-0.7-3.1-0.3-13.8-2.8-15.2c-2.6-1.4-5.4,1.8-6,10.9c-0.6,9.1,17.8,35.7,17.8,35.7
			l13.4,65.2l37.7,6.9l22.4-36.7L933.8,446.3z"/>
		<path class="st7" d="M1049.3,454.8l-13.9,10.1l-1.3,0.9l-10.4,7.5l-1.6,41l-6.3-0.1l-1.3,0l-18.2-0.4l-1.3,0l-18.2-0.4l-1.3,0
			l-18.2-0.4l-1.3,0l-1.9,0c0.3-8.3-0.4-16.6-2.2-24.7c-3-14.6,1.2-24.7,1.2-24.7l-19.2-17.4l9.9-15.3c3-4.7,7.2-8.4,12.2-10.8
			c0.4-0.2,0.9-0.4,1.3-0.6c1.4-0.6,2.9-1.1,4.4-1.5l13.8-3.5l0.8-0.2l0.6-0.1l4.7-1.2l13.6,0h1.3l14.8,0l3.5,1.8l1.3,0.7l0,0
			l12.4,6.5c2.1,1.1,4,2.4,5.8,4c0.4,0.4,0.9,0.8,1.3,1.2c3.1,3,5.5,6.6,7,10.5L1049.3,454.8z"/>
		<g class="st8">
			<path class="st1" d="M957.2,419.5v93.6l-1.3,0v-93C956.3,419.9,956.8,419.7,957.2,419.5z"/>
		</g>
		<g class="st8">
			<path class="st1" d="M976.8,414.1v99.4l-1.3,0v-99l0.8-0.2L976.8,414.1z"/>
		</g>
		<g class="st8">
			<path class="st1" d="M996.3,413v100.9l-1.3,0V413H996.3z"/>
		</g>
		<g class="st8">
			<path class="st1" d="M1015.9,415.5v98.8l-1.3,0v-99.4L1015.9,415.5z"/>
		</g>
		<g class="st8">
			<path class="st1" d="M1035.4,427.2v37.8l-1.3,0.9V426C1034.5,426.3,1035,426.7,1035.4,427.2z"/>
		</g>
		<path class="st1" d="M1015.9,415.5c-4.1,8.3-14.7,13.1-27.9,12.2c-11-0.7-12.4-8.1-11.8-13.5l5.2-1.4l29.7,0.1L1015.9,415.5z"/>
		<path class="st2" d="M1011.1,413c-2,3.4-4.8,6.1-8.2,8c-3.4,1.9-7.2,2.9-11.1,2.8c-13.8,0-10.4-10.9-10.4-10.9l3.9-1.3l-0.2-6.8
			l-0.4-9.8l23.6-7.2c-0.6,1.3-0.9,2.6-1.1,4c-1.1,7.4,0.1,19.7,0.1,19.7L1011.1,413z"/>
		<path class="st4" d="M1008.3,387.9c-0.6,1.3-0.9,2.6-1.1,4c0,0,0,0,0,0c-6.6,13.3-17.7,13.5-22.1,13l-0.4-9.8L1008.3,387.9z"/>
		<path class="st2" d="M982.5,352.4c2.2,11.6,27,19.6,28.7,20.9c1,1.1,1.5,2.5,1.5,4c0,0.1,0,0.1,0.1,0.2c0,0,0.1,0.1,0.2,0.1
			c0.1,0,0.1,0,0.2,0c0.1,0,0.1-0.1,0.1-0.1c0.6-1.7,1.9-4.2,4-4.4c3.3-0.4,6.4,3.7,4.6,8.7c-1.9,5-9.4,2.3-9.4,2.3
			s-6.1,14.9-20.1,15.3c-14,0.4-17.1-11.5-16.1-18.8c0.9-5,1.1-10.2,0.3-15.2C975.9,361,981.3,358,982.5,352.4z"/>
		<path class="st11" d="M1018.2,375.9c-1.2,0.3-2.5,3.6-2,5.1"/>
		<path class="st11" d="M990.1,385.2l-1.6-1c-0.5-0.3-0.9-0.8-1.1-1.4c-0.2-0.6-0.2-1.2,0.1-1.8l2.7-6.2"/>
		<path d="M996,377.8c0.1,0.2,0.2,0.4,0.3,0.6c0.2,0.2,0.4,0.3,0.6,0.3c0.2,0,0.4,0,0.7,0c0.2-0.1,0.4-0.2,0.5-0.4
			c0.1-0.2,0.2-0.4,0.3-0.6c0-0.2,0-0.5-0.1-0.7c-0.1-0.2-0.3-0.4-0.4-0.5c-0.2-0.1-0.4-0.2-0.6-0.2c-0.3,0-0.7,0.2-0.9,0.5
			C996.1,377.1,996,377.4,996,377.8z"/>
		<path d="M982,376.9c0.1,0.2,0.2,0.4,0.3,0.6c0.2,0.2,0.4,0.3,0.6,0.3c0.2,0,0.4,0,0.7,0c0.2-0.1,0.4-0.2,0.5-0.4s0.2-0.4,0.3-0.6
			c0-0.2,0-0.5-0.1-0.7c-0.1-0.2-0.3-0.4-0.4-0.5c-0.2-0.1-0.4-0.2-0.6-0.2c-0.3,0-0.7,0.2-0.9,0.5C982,376.2,981.9,376.6,982,376.9
			z"/>
		<path class="st12" d="M1002.1,369.8c-1-1-2.2-1.6-3.6-1.7c-1.4-0.2-2.7,0.1-3.9,0.8"/>
		<path class="st12" d="M979.4,369.7c0,0,2.9-3.2,7.6-0.3"/>
		<path class="st20" d="M987,377.3c0,1.2-0.4,2.3-1,3.3c-0.7,1-1.6,1.8-2.7,2.2c-1.1,0.5-2.3,0.6-3.5,0.3c-1.2-0.2-2.2-0.8-3.1-1.6
			c-0.8-0.8-1.4-1.9-1.6-3.1c-0.2-1.2-0.1-2.4,0.3-3.5c0.5-1.1,1.2-2,2.2-2.7c1-0.7,2.1-1,3.3-1c0.8,0,1.6,0.2,2.3,0.5
			c0.7,0.3,1.4,0.7,1.9,1.3c0.6,0.6,1,1.2,1.3,1.9C986.9,375.7,987,376.5,987,377.3L987,377.3z"/>
		<path class="st20" d="M1003.7,377.3c0,1.2-0.4,2.3-1,3.3c-0.7,1-1.6,1.8-2.7,2.2c-1.1,0.5-2.3,0.6-3.5,0.3
			c-1.2-0.2-2.2-0.8-3.1-1.6c-0.8-0.8-1.4-1.9-1.6-3.1c-0.2-1.2-0.1-2.4,0.3-3.5c0.5-1.1,1.2-2,2.2-2.7c1-0.7,2.1-1,3.3-1
			c0.8,0,1.6,0.2,2.3,0.5c0.7,0.3,1.4,0.7,1.9,1.3c0.6,0.6,1,1.2,1.3,1.9C1003.5,375.7,1003.7,376.5,1003.7,377.3L1003.7,377.3z"/>
		<path class="st20" d="M986.9,375.9c0.3-0.3,0.7-0.6,1.1-0.8s0.9-0.3,1.3-0.3c0.5,0,0.9,0.1,1.3,0.3c0.4,0.2,0.8,0.4,1.1,0.8"/>
		<path class="st11" d="M991.8,390.5c1.2,0.4,2.4,0.6,3.6,0.4c1.2-0.2,2.4-0.7,3.3-1.5"/>
		<path class="st5" d="M949.4,512.4h-58.2c-0.5,0-0.9-0.1-1.3-0.4c-0.4-0.3-0.7-0.7-0.8-1.1l-12.5-45.3c-0.1-0.3-0.1-0.6-0.1-0.8
			c0-0.3,0.1-0.5,0.3-0.8c0.1-0.2,0.3-0.5,0.5-0.6c0.2-0.2,0.5-0.3,0.7-0.4l0.7-0.2h0c0,0,0,0,0.1,0h58.2L949.4,512.4z"/>
		<path class="st21" d="M914.7,489.9c0,0.9-0.3,1.8-0.8,2.5c-0.5,0.7-1.2,1.3-2,1.7c-0.8,0.3-1.7,0.4-2.6,0.3
			c-0.9-0.2-1.7-0.6-2.3-1.2c-0.6-0.6-1.1-1.4-1.2-2.3s-0.1-1.8,0.3-2.6c0.3-0.8,0.9-1.5,1.7-2s1.6-0.8,2.5-0.8
			c0.6,0,1.2,0.1,1.7,0.3c0.5,0.2,1,0.6,1.5,1c0.4,0.4,0.8,0.9,1,1.5C914.6,488.7,914.7,489.3,914.7,489.9z"/>
		<path class="st6" d="M995.6,507.4h-46.2c-1.2,0-2.1,0.9-2.1,2.1v0.8c0,1.2,0.9,2.1,2.1,2.1h46.2c1.2,0,2.1-0.9,2.1-2.1v-0.8
			C997.7,508.4,996.7,507.4,995.6,507.4z"/>
		<path class="st6" d="M952,508.8l-12.3-44.5c-0.3-1.1-1.5-1.8-2.6-1.5l-0.8,0.2c-1.1,0.3-1.8,1.5-1.5,2.6l12.3,44.5
			c0.3,1.1,1.5,1.8,2.6,1.5l0.8-0.2C951.6,511.1,952.3,509.9,952,508.8z"/>
		<path class="st2" d="M1070.2,525.4c0,3.5-1,7-2.8,10c-1.8,3-4.4,5.5-7.5,7.1c-3.1,1.6-6.6,2.4-10.1,2.2c-3.5-0.2-6.9-1.4-9.8-3.4
			l-32.3-22.3c0,0-17.6,3.9-25.5,3.1c-7.9-0.7-16.4-4.9-16.4-6.5c-0.1-1.6,31.9-5,30.4-6.3c-1.5-1.3-15.8-1.4-16-4.5
			c-0.2-3.1,3.4-4.1,9.4-4.5c6-0.4,13.5,2.6,13.5,2.6l32.4,4.5l-9.2-26.8l-2.5-7.2l25.5-18.5l1.7,5.4l18.5,59.5
			C1070,521.6,1070.3,523.5,1070.2,525.4z"/>
		<path class="st4" d="M1049.3,454.8l1.7,5.4l-24.7,20.4l-2.5-7.2L1049.3,454.8z"/>
		<path class="st11" d="M1035.4,507.4l13.8,1.9"/>
		<path class="st3" d="M958.7,509.9c0,0.2,0,0.3-0.1,0.4s-0.2,0.2-0.3,0.3c-0.1,0.1-0.3,0.1-0.4,0c-0.1,0-0.3-0.1-0.4-0.2
			c-0.1-0.1-0.2-0.2-0.2-0.4c0-0.1,0-0.3,0-0.4c0.1-0.1,0.2-0.3,0.3-0.3c0.1-0.1,0.3-0.1,0.4-0.1c0.2,0,0.4,0.1,0.5,0.2
			C958.6,509.5,958.7,509.7,958.7,509.9z"/>
		<path class="st3" d="M961.8,509.9c0,0.2,0,0.3-0.1,0.4c-0.1,0.1-0.2,0.2-0.3,0.3c-0.1,0.1-0.3,0.1-0.4,0c-0.1,0-0.3-0.1-0.4-0.2
			c-0.1-0.1-0.2-0.2-0.2-0.4c0-0.1,0-0.3,0-0.4c0.1-0.1,0.2-0.3,0.3-0.3c0.1-0.1,0.3-0.1,0.4-0.1c0.2,0,0.4,0.1,0.5,0.2
			C961.7,509.5,961.8,509.7,961.8,509.9z"/>
		<path class="st5" d="M979.1,765.8l-33.5-1.1c-2.3-0.1-4.2,1.7-4.3,4l-0.2,5.3c-0.1,2.3,1.7,4.2,4,4.3l33.5,1.1
			c2.3,0.1,4.2-1.7,4.3-4l0.2-5.3C983.2,767.8,981.4,765.9,979.1,765.8z"/>
		<path class="st5" d="M1075.8,759l-32.1,9.6c-2.2,0.7-3.4,2.9-2.8,5.1l1.5,5.1c0.7,2.2,2.9,3.4,5.1,2.8l32.1-9.6
			c2.2-0.7,3.4-2.9,2.8-5.1l-1.5-5.1C1080.3,759.5,1078,758.3,1075.8,759z"/>
		<path class="st9" d="M983.4,577.8l16.2,52.4"/>
		<path class="st9" d="M957.2,487.2c8.6,8,23.8,9.1,23.8,9.1"/>
		<path class="st9" d="M1023.7,473.4l-11-18.5"/>
		<path class="st9" d="M953.1,463.7c4.7-9.4,5.7-21.5,5.7-21.5"/>
		<path class="st22" d="M385,823.2h768.9"/>
		<path class="st1" d="M936.3,323v61.8l-15.5-15.5h-59.5V323H936.3z"/>
		<path class="st23" d="M881.5,335.5h34.6"/>
		<path class="st24" d="M887.2,342.6h28.9"/>
		<path class="st24" d="M881.5,349.7h34.6"/>
		<path class="st24" d="M891.8,356.8h24.2"/>
		<path class="st1" d="M589.2,358.9v61.8l15.5-15.5h59.5v-46.3H589.2z"/>
		<path class="st25" d="M644,371.4h-34.6"/>
		<path class="st24" d="M638.3,378.5h-28.9"/>
		<path class="st24" d="M644,385.6h-34.6"/>
		<path class="st24" d="M633.7,392.7h-24.2"/>
	</g>
</g>
</svg>
