<svg xmlns="http://www.w3.org/2000/svg" xmlns:xlink="http://www.w3.org/1999/xlink" viewBox="0 0 500 500"><defs><style>.cls-1,.cls-2,.cls-5{fill:none;}.cls-2{stroke:#878787;stroke-width:3px;}.cls-2,.cls-5{stroke-linecap:round;stroke-miterlimit:10;}.cls-3{fill:#9d9d9c;}.cls-4{clip-path:url(#clip-path);}.cls-5{stroke:#9d9d9c;stroke-width:2px;}</style><clipPath id="clip-path"><path id="SVGID" class="cls-1" d="M384.57763,281.3562a137.99024,137.99024,0,0,1-269.15526-.00037"/></clipPath></defs><g id="Fläche_2" data-name="Fläche 2"><line class="cls-2" x1="17.72897" y1="280.4588" x2="482.27103" y2="280.4588"/><path class="cls-3" d="M115.42233,279.56414a137.95182,137.95182,0,1,1,269.15526.00036"/><g class="cls-4"><line class="cls-5" x1="-18.13993" y1="401.98586" x2="518.14002" y2="401.98586"/><line class="cls-5" x1="-18.13993" y1="358.98791" x2="518.14002" y2="358.98791"/><line class="cls-5" x1="-18.13993" y1="364.36265" x2="518.14002" y2="364.36265"/><line class="cls-5" x1="-18.13993" y1="369.7374" x2="518.14002" y2="369.7374"/><line class="cls-5" x1="-18.13993" y1="375.11214" x2="518.14002" y2="375.11214"/><line class="cls-5" x1="-18.13993" y1="380.48688" x2="518.14002" y2="380.48688"/><line class="cls-5" x1="-18.13993" y1="385.86163" x2="518.14002" y2="385.86163"/><line class="cls-5" x1="-18.13993" y1="391.23637" x2="518.14002" y2="391.23637"/><line class="cls-5" x1="-18.13993" y1="396.61111" x2="518.14002" y2="396.61111"/><line class="cls-5" x1="-18.13993" y1="353.61316" x2="518.14002" y2="353.61316"/><line class="cls-5" x1="-18.13993" y1="321.3647" x2="518.14002" y2="321.3647"/><line class="cls-5" x1="-18.13993" y1="326.73945" x2="518.14002" y2="326.73945"/><line class="cls-5" x1="-18.13993" y1="332.11419" x2="518.14002" y2="332.11419"/><line class="cls-5" x1="-18.13993" y1="337.48893" x2="518.14002" y2="337.48893"/><line class="cls-5" x1="-18.13993" y1="342.86368" x2="518.14002" y2="342.86368"/><line class="cls-5" x1="-18.13993" y1="348.23842" x2="518.14002" y2="348.23842"/><line class="cls-5" x1="-18.13993" y1="315.98996" x2="518.14002" y2="315.98996"/><line class="cls-5" x1="-18.13993" y1="251.49304" x2="518.14002" y2="251.49304"/><line class="cls-5" x1="-18.13993" y1="256.86778" x2="518.14002" y2="256.86778"/><line class="cls-5" x1="-18.13993" y1="262.24253" x2="518.14002" y2="262.24253"/><line class="cls-5" x1="-18.13993" y1="267.61727" x2="518.14002" y2="267.61727"/><line class="cls-5" x1="-18.13993" y1="272.99201" x2="518.14002" y2="272.99201"/><line class="cls-5" x1="-18.13993" y1="278.36676" x2="518.14002" y2="278.36676"/><line class="cls-5" x1="-18.13993" y1="283.7415" x2="518.14002" y2="283.7415"/><line class="cls-5" x1="-18.13993" y1="289.11624" x2="518.14002" y2="289.11624"/><line class="cls-5" x1="-18.13993" y1="294.49099" x2="518.14002" y2="294.49099"/><line class="cls-5" x1="-18.13993" y1="299.86573" x2="518.14002" y2="299.86573"/><line class="cls-5" x1="-18.13993" y1="305.24047" x2="518.14002" y2="305.24047"/><line class="cls-5" x1="-18.13993" y1="310.61522" x2="518.14002" y2="310.61522"/><line class="cls-5" x1="-18.13993" y1="246.1183" x2="518.14002" y2="246.1183"/></g></g></svg>